<svg version="1.1" id="Layer_1" xmlns="http://www.w3.org/2000/svg" xmlns:xlink="http://www.w3.org/1999/xlink" x="0px" y="0px"
	 width="100%" viewBox="0 0 425 448" enable-background="new 0 0 425 448" xml:space="preserve">
<path fill="#000000" opacity="1.000000" stroke="none" 
	d="
M247.000000,449.000000 
	C164.690079,449.000000 82.880165,449.000000 1.035126,449.000000 
	C1.035126,299.732819 1.035126,150.465637 1.035126,1.099227 
	C142.559921,1.099227 284.119934,1.099227 425.839966,1.099227 
	C425.839966,150.333191 425.839966,299.666595 425.839966,449.000000 
	C366.465607,449.000000 306.982819,449.000000 247.000000,449.000000 
M109.292702,239.131577 
	C108.910049,240.117508 108.527397,241.103424 108.024406,242.459778 
	C108.024406,242.459778 107.974792,242.846085 107.413277,243.034607 
	C107.320763,243.379105 107.228256,243.723618 107.011230,244.471542 
	C107.011230,244.471542 106.917122,244.883102 106.229607,245.161118 
	C101.409363,254.964096 96.539085,264.742859 91.780235,274.575562 
	C83.992393,290.666718 76.244858,306.777588 68.555992,322.916229 
	C66.840202,326.517609 65.438011,330.268402 63.971973,333.990692 
	C63.971973,333.990692 63.945175,333.904724 63.265087,334.167816 
	C59.764664,341.272430 56.264244,348.377045 52.524128,355.968170 
	C74.213669,355.968170 95.094513,355.945404 115.975067,356.012817 
	C117.587990,356.018066 119.198868,356.657532 120.276924,357.373566 
	C120.334366,358.289307 120.644585,359.275940 120.410591,360.109924 
	C117.746506,369.604889 114.963570,379.066437 112.284355,388.557251 
	C109.555489,398.223999 106.906807,407.913391 104.128418,418.379822 
	C104.110313,418.643036 104.092216,418.906219 104.644920,419.775391 
	C105.305748,419.842346 105.966583,419.967957 106.627419,419.967987 
	C176.251282,419.971893 245.875137,419.970367 315.498993,419.933716 
	C316.950409,419.932953 318.401611,419.518860 319.920380,418.691193 
	C319.930603,418.488068 319.940796,418.284943 319.899048,417.472015 
	C317.121185,408.250336 314.285553,399.045563 311.580383,389.802582 
	C308.377075,378.857361 305.286163,367.879272 302.668152,356.405243 
	C304.939453,355.992096 307.213531,355.207550 309.481628,355.224518 
	C327.786530,355.361420 346.090027,355.702789 364.394928,355.797821 
	C366.018463,355.806274 367.648804,354.509369 369.370087,353.778778 
	C367.010101,349.723450 364.922302,346.687347 363.389526,343.392975 
	C359.603760,335.256378 356.254517,326.914581 352.393219,318.815765 
	C347.450775,308.449371 342.083649,298.286072 337.081970,287.947021 
	C333.890991,281.350861 331.207520,274.507538 327.968994,267.936432 
	C325.067871,262.049957 321.488281,256.495880 318.628265,250.591583 
	C315.428741,243.986313 312.791626,237.111023 309.737885,230.431824 
	C307.758514,226.102509 305.416321,221.940674 303.332367,217.657257 
	C297.207825,205.068619 291.118347,192.462845 285.040863,179.851395 
	C281.951202,173.440063 278.945068,166.988419 275.849548,160.579956 
	C272.572174,153.795059 269.298492,147.006927 265.900665,140.282135 
	C263.255157,135.046310 260.233246,129.995300 257.710602,124.703873 
	C252.230042,113.207985 247.050125,101.568832 241.575195,90.070183 
	C238.004745,82.571411 234.076630,75.243782 230.411819,67.788811 
	C227.494904,61.855232 224.941437,55.734722 221.841537,49.901855 
	C219.122787,44.786179 215.868774,39.954975 212.909897,34.359470 
	C212.289261,33.941601 211.668610,33.523731 210.561417,33.081795 
	C210.204208,33.208443 210.034119,33.461071 209.450562,34.132420 
	C209.267487,34.758789 209.084412,35.385159 208.983368,35.973522 
	C208.983368,35.973522 208.941101,35.893608 208.275177,36.188931 
	C203.263382,46.205406 198.149612,56.172588 193.275330,66.255539 
	C189.979187,73.073929 187.020172,80.055290 183.981216,86.997330 
	C183.981216,86.997330 183.962189,86.921288 183.298050,87.158546 
	C182.589462,88.788506 181.880875,90.418465 181.047211,92.460327 
	C181.047211,92.460327 180.984695,92.886246 180.298309,93.146873 
	C176.843491,99.981544 173.304840,106.775414 169.953735,113.660568 
	C165.058029,123.719261 160.364075,133.876236 155.459930,143.930725 
	C150.375885,154.354065 145.092194,164.679901 139.989731,175.094391 
	C133.858200,187.609238 127.751572,200.137543 121.789391,212.733490 
	C119.596207,217.366898 117.845596,222.209763 115.972061,226.991089 
	C115.972061,226.991089 115.950134,226.907974 115.276962,227.162292 
	C114.479691,229.088364 113.682419,231.014435 112.967117,232.988434 
	C112.967117,232.988434 112.940857,232.897171 112.264061,233.150452 
	C111.471970,235.084595 110.679878,237.018753 109.968140,238.990936 
	C109.968140,238.990936 109.944954,238.905106 109.292702,239.131577 
z"/>
<path fill="#183968" opacity="1.000000" stroke="none" 
	d="
M302.146545,356.915405 
	C305.286163,367.879272 308.377075,378.857361 311.580383,389.802582 
	C314.285553,399.045563 317.121185,408.250336 319.524658,417.773438 
	C317.811157,417.989655 316.472076,417.904449 315.002869,417.517639 
	C310.277863,413.992767 305.802094,410.581726 301.067780,407.578186 
	C277.961426,392.918915 254.826279,378.304047 231.609924,363.820007 
	C224.883209,359.623383 217.853561,355.912354 210.982071,351.646362 
	C211.017120,350.870361 211.032883,350.426697 211.053864,349.654297 
	C211.052139,348.887024 211.045212,348.448547 211.184540,347.628052 
	C211.244888,342.130432 211.035782,337.013306 211.097275,331.899475 
	C211.252686,318.977295 211.730240,306.056244 211.708633,293.135376 
	C211.680069,276.053802 211.073196,258.972168 211.123001,241.891754 
	C211.194199,217.476166 211.789078,193.062088 211.859024,168.646500 
	C211.899841,154.398926 211.111237,140.149353 211.129395,125.901230 
	C211.155212,105.617378 211.579437,85.334023 211.877533,64.580292 
	C211.906921,59.071976 211.892227,54.033829 211.906403,48.580818 
	C211.893051,46.781498 211.850815,45.397038 211.847168,43.634846 
	C211.834946,42.501232 211.784149,41.745354 211.804184,40.723068 
	C211.938232,40.284100 212.001434,40.111538 212.404755,40.050316 
	C213.565018,41.722374 214.703781,43.196835 215.153564,44.857857 
	C218.021240,55.448231 220.643890,66.105064 223.523834,76.691978 
	C228.413696,94.667511 233.392731,112.619087 238.409607,130.559677 
	C245.802444,156.996872 253.329880,183.396591 260.669006,209.848618 
	C265.870667,228.596695 270.752441,247.433594 275.963654,266.178955 
	C282.604309,290.066010 289.398163,313.910706 296.204163,337.751343 
	C298.039612,344.180847 300.158020,350.529602 302.146545,356.915405 
z"/>
<path fill="#10213B" opacity="1.000000" stroke="none" 
	d="
M302.407349,356.660339 
	C300.158020,350.529602 298.039612,344.180847 296.204163,337.751343 
	C289.398163,313.910706 282.604309,290.066010 275.963654,266.178955 
	C270.752441,247.433594 265.870667,228.596695 260.669006,209.848618 
	C253.329880,183.396591 245.802444,156.996872 238.409607,130.559677 
	C233.392731,112.619087 228.413696,94.667511 223.523834,76.691978 
	C220.643890,66.105064 218.021240,55.448231 215.153564,44.857857 
	C214.703781,43.196835 213.565018,41.722374 212.393799,39.634998 
	C211.964676,37.718407 211.886612,36.328465 212.069305,34.951744 
	C212.503769,34.976017 212.677475,34.987072 212.851181,34.998123 
	C215.868774,39.954975 219.122787,44.786179 221.841537,49.901855 
	C224.941437,55.734722 227.494904,61.855232 230.411819,67.788811 
	C234.076630,75.243782 238.004745,82.571411 241.575195,90.070183 
	C247.050125,101.568832 252.230042,113.207985 257.710602,124.703873 
	C260.233246,129.995300 263.255157,135.046310 265.900665,140.282135 
	C269.298492,147.006927 272.572174,153.795059 275.849548,160.579956 
	C278.945068,166.988419 281.951202,173.440063 285.040863,179.851395 
	C291.118347,192.462845 297.207825,205.068619 303.332367,217.657257 
	C305.416321,221.940674 307.758514,226.102509 309.737885,230.431824 
	C312.791626,237.111023 315.428741,243.986313 318.628265,250.591583 
	C321.488281,256.495880 325.067871,262.049957 327.968994,267.936432 
	C331.207520,274.507538 333.890991,281.350861 337.081970,287.947021 
	C342.083649,298.286072 347.450775,308.449371 352.393219,318.815765 
	C356.254517,326.914581 359.603760,335.256378 363.389526,343.392975 
	C364.922302,346.687347 367.010101,349.723450 369.370087,353.778778 
	C367.648804,354.509369 366.018463,355.806274 364.394928,355.797821 
	C346.090027,355.702789 327.786530,355.361420 309.481628,355.224518 
	C307.213531,355.207550 304.939453,355.992096 302.407349,356.660339 
z"/>
<path fill="#89B5E0" opacity="1.000000" stroke="none" 
	d="
M180.984695,92.886246 
	C180.984695,92.886246 181.047211,92.460327 181.426331,92.128296 
	C182.524353,90.171265 183.243271,88.546272 183.962189,86.921288 
	C183.962189,86.921288 183.981216,86.997330 184.300690,86.911705 
	C185.167877,86.478264 185.972260,86.260590 186.224564,85.762985 
	C189.643478,79.020363 192.999802,72.245819 196.343246,65.465187 
	C200.342194,57.355202 204.313934,49.231800 208.274124,41.477055 
	C208.176804,42.561478 208.102814,43.283054 207.925552,44.259747 
	C207.701294,45.039497 207.580307,45.564133 207.304016,46.454754 
	C205.444504,53.546970 203.740295,60.273201 201.967621,67.125771 
	C201.899124,67.252106 201.934418,67.537331 201.711578,67.717712 
	C201.371582,68.249092 201.254410,68.600098 201.064240,69.347832 
	C190.105347,109.876915 179.407043,150.061325 168.287491,190.128815 
	C153.388123,243.816284 138.162689,297.413269 122.945152,351.349365 
	C122.462143,352.450531 122.111244,353.251495 121.309280,354.041016 
	C101.717621,354.021393 82.577019,354.028412 63.436474,353.996887 
	C56.591156,353.985596 56.184395,353.077240 59.063904,346.749390 
	C60.957142,342.588959 62.335983,338.194427 63.945171,333.904724 
	C63.945175,333.904724 63.971973,333.990692 64.288750,333.913147 
	C65.740288,332.538971 67.218338,331.408783 67.943481,329.913513 
	C69.883217,325.913788 71.333183,321.676086 73.280319,317.680420 
	C77.132072,309.776276 81.282967,302.017944 85.138626,294.115631 
	C92.389740,279.254272 99.557945,264.351898 106.629257,249.404419 
	C107.229401,248.135834 106.844444,246.401215 106.917122,244.883102 
	C106.917122,244.883102 107.011230,244.471542 107.247101,244.089920 
	C107.698402,243.450272 107.862343,243.162872 107.974792,242.846085 
	C107.974792,242.846085 108.024406,242.459778 108.389580,242.139069 
	C109.151489,240.847260 109.548225,239.876190 109.944954,238.905106 
	C109.944954,238.905106 109.968140,238.990936 110.279587,238.882599 
	C111.374306,236.815231 112.157585,234.856201 112.940857,232.897171 
	C112.940857,232.897171 112.967117,232.988434 113.314812,232.940338 
	C114.425049,230.897491 115.187592,228.902725 115.950134,226.907974 
	C115.950134,226.907974 115.972061,226.991089 116.273392,226.887115 
	C118.893814,222.829163 121.487495,219.008682 123.485359,214.898560 
	C133.124756,195.067902 142.560196,175.138184 152.159958,155.288086 
	C156.278259,146.772354 160.638947,138.374115 164.853928,129.904785 
	C168.242844,123.095314 171.795731,116.355316 174.866943,109.403831 
	C177.235229,104.043343 178.968887,98.402466 180.984695,92.886246 
z"/>
<path fill="#2E508B" opacity="1.000000" stroke="none" 
	d="
M121.760345,354.052429 
	C122.111244,353.251495 122.462143,352.450531 123.161041,351.667847 
	C123.041672,356.175018 123.192368,360.837677 121.989136,365.119873 
	C118.600479,377.179810 114.529129,389.046509 111.018547,401.074524 
	C110.149834,404.050873 110.388786,407.350494 110.118576,410.501526 
	C113.557495,409.119354 117.143822,408.011658 120.389038,406.268799 
	C123.021027,404.855377 125.084938,402.407288 127.679085,400.895660 
	C133.657791,397.411743 139.954834,394.461609 145.850159,390.850037 
	C154.692780,385.432892 163.301727,379.634277 172.384125,374.027283 
	C173.253342,374.138641 173.748474,374.220612 174.089188,374.595673 
	C172.780334,375.835938 171.712387,376.920532 170.458527,377.709747 
	C151.188049,389.839050 131.883865,401.914764 112.622818,414.058929 
	C111.129494,415.000488 109.899048,416.359009 108.180695,417.531372 
	C106.617653,417.556976 105.420326,417.574921 104.223007,417.592865 
	C106.906807,407.913391 109.555489,398.223999 112.284355,388.557251 
	C114.963570,379.066437 117.746506,369.604889 120.410591,360.109924 
	C120.644585,359.275940 120.334366,358.289307 120.784683,356.969604 
	C121.448402,355.727936 121.604370,354.890167 121.760345,354.052429 
z"/>
<path fill="#99B6CF" opacity="1.000000" stroke="none" 
	d="
M180.641510,93.016556 
	C178.968887,98.402466 177.235229,104.043343 174.866943,109.403831 
	C171.795731,116.355316 168.242844,123.095314 164.853928,129.904785 
	C160.638947,138.374115 156.278259,146.772354 152.159958,155.288086 
	C142.560196,175.138184 133.124756,195.067902 123.485359,214.898560 
	C121.487495,219.008682 118.893814,222.829163 116.233925,226.870117 
	C117.845596,222.209763 119.596207,217.366898 121.789391,212.733490 
	C127.751572,200.137543 133.858200,187.609238 139.989731,175.094391 
	C145.092194,164.679901 150.375885,154.354065 155.459930,143.930725 
	C160.364075,133.876236 165.058029,123.719261 169.953735,113.660568 
	C173.304840,106.775414 176.843491,99.981544 180.641510,93.016556 
z"/>
<path fill="#99B6D0" opacity="1.000000" stroke="none" 
	d="
M106.573364,245.022110 
	C106.844444,246.401215 107.229401,248.135834 106.629257,249.404419 
	C99.557945,264.351898 92.389740,279.254272 85.138626,294.115631 
	C81.282967,302.017944 77.132072,309.776276 73.280319,317.680420 
	C71.333183,321.676086 69.883217,325.913788 67.943481,329.913513 
	C67.218338,331.408783 65.740288,332.538971 64.248482,333.893005 
	C65.438011,330.268402 66.840202,326.517609 68.555992,322.916229 
	C76.244858,306.777588 83.992393,290.666718 91.780235,274.575562 
	C96.539085,264.742859 101.409363,254.964096 106.573364,245.022110 
z"/>
<path fill="#797E8A" opacity="1.000000" stroke="none" 
	d="
M319.852936,419.297607 
	C318.401611,419.518860 316.950409,419.932953 315.498993,419.933716 
	C245.875137,419.970367 176.251282,419.971893 106.627419,419.967987 
	C105.966583,419.967957 105.305748,419.842346 104.820641,419.419067 
	C166.127502,419.041809 227.258652,419.006409 288.389801,419.013763 
	C298.877502,419.015045 309.365234,419.198364 319.852936,419.297607 
z"/>
<path fill="#000418" opacity="1.000000" stroke="none" 
	d="
M319.886658,418.994385 
	C309.365234,419.198364 298.877502,419.015045 288.389801,419.013763 
	C227.258652,419.006409 166.127502,419.041809 104.535240,419.116089 
	C104.092216,418.906219 104.110313,418.643036 104.175705,417.986328 
	C105.420326,417.574921 106.617653,417.556976 108.677628,417.667297 
	C110.701439,417.860565 111.862579,417.982208 113.023750,417.982483 
	C179.232178,417.998535 245.440598,418.005524 311.649017,418.003510 
	C312.810333,418.003448 313.971649,417.883331 315.132965,417.819244 
	C316.472076,417.904449 317.811157,417.989655 319.550659,418.078339 
	C319.940796,418.284943 319.930603,418.488068 319.886658,418.994385 
z"/>
<path fill="#99B6D0" opacity="1.000000" stroke="none" 
	d="
M121.309273,354.041016 
	C121.604370,354.890167 121.448402,355.727936 121.051559,356.783936 
	C119.198868,356.657532 117.587990,356.018066 115.975067,356.012817 
	C95.094513,355.945404 74.213669,355.968170 52.524128,355.968170 
	C56.264244,348.377045 59.764664,341.272430 63.605125,334.036255 
	C62.335983,338.194427 60.957142,342.588959 59.063904,346.749390 
	C56.184395,353.077240 56.591156,353.985596 63.436474,353.996887 
	C82.577019,354.028412 101.717621,354.021393 121.309273,354.041016 
z"/>
<path fill="#99B6CF" opacity="1.000000" stroke="none" 
	d="
M208.297455,41.114212 
	C204.313934,49.231800 200.342194,57.355202 196.343246,65.465187 
	C192.999802,72.245819 189.643478,79.020363 186.224564,85.762985 
	C185.972260,86.260590 185.167877,86.478264 184.265259,86.894920 
	C187.020172,80.055290 189.979187,73.073929 193.275330,66.255539 
	C198.149612,56.172588 203.263382,46.205406 208.763184,36.443092 
	C209.139236,38.118195 209.027283,39.539135 208.763062,41.007484 
	C208.610794,41.054893 208.297470,41.114212 208.297455,41.114212 
z"/>
<path fill="#2E508B" opacity="1.000000" stroke="none" 
	d="
M208.915344,40.960075 
	C209.027283,39.539135 209.139236,38.118195 209.096146,36.295433 
	C208.941101,35.893608 208.983368,35.973522 209.265259,35.880894 
	C209.715149,35.138737 209.883133,34.489208 210.051117,33.839684 
	C210.034119,33.461071 210.204208,33.208443 210.852844,33.342285 
	C211.365707,34.048023 211.587128,34.493275 211.808548,34.938522 
	C211.886612,36.328465 211.964676,37.718407 212.053696,39.523659 
	C212.001434,40.111538 211.938232,40.284100 211.456848,40.724735 
	C210.330917,40.981895 209.623123,40.970985 208.915344,40.960075 
z"/>
<path fill="#99B6CF" opacity="1.000000" stroke="none" 
	d="
M115.613548,227.035126 
	C115.187592,228.902725 114.425049,230.897491 113.273819,232.916382 
	C113.682419,231.014435 114.479691,229.088364 115.613548,227.035126 
z"/>
<path fill="#99B6CF" opacity="1.000000" stroke="none" 
	d="
M112.602463,233.023804 
	C112.157585,234.856201 111.374306,236.815231 110.239410,238.863586 
	C110.679878,237.018753 111.471970,235.084595 112.602463,233.023804 
z"/>
<path fill="#99B6CF" opacity="1.000000" stroke="none" 
	d="
M183.630127,87.039917 
	C183.243271,88.546272 182.524353,90.171265 181.488861,91.922340 
	C181.880875,90.418465 182.589462,88.788506 183.630127,87.039917 
z"/>
<path fill="#99B6CF" opacity="1.000000" stroke="none" 
	d="
M109.618828,239.018341 
	C109.548225,239.876190 109.151489,240.847260 108.449745,241.953857 
	C108.527397,241.103424 108.910049,240.117508 109.618828,239.018341 
z"/>
<path fill="#183968" opacity="1.000000" stroke="none" 
	d="
M212.069305,34.951744 
	C211.587128,34.493275 211.365707,34.048023 211.096130,33.354317 
	C211.668610,33.523731 212.289261,33.941601 212.880539,34.678795 
	C212.677475,34.987072 212.503769,34.976017 212.069305,34.951744 
z"/>
<path fill="#99B6CF" opacity="1.000000" stroke="none" 
	d="
M209.750824,33.986050 
	C209.883133,34.489208 209.715149,35.138737 209.224258,35.899899 
	C209.084412,35.385159 209.267487,34.758789 209.750824,33.986050 
z"/>
<path fill="#99B6CF" opacity="1.000000" stroke="none" 
	d="
M107.694031,242.940338 
	C107.862343,243.162872 107.698402,243.450272 107.309357,243.888214 
	C107.228256,243.723618 107.320763,243.379105 107.694031,242.940338 
z"/>
<path fill="#2C509F" opacity="1.000000" stroke="none" 
	d="
M172.010040,373.997894 
	C163.301727,379.634277 154.692780,385.432892 145.850159,390.850037 
	C139.954834,394.461609 133.657791,397.411743 127.679085,400.895660 
	C125.084938,402.407288 123.021027,404.855377 120.389038,406.268799 
	C117.143822,408.011658 113.557495,409.119354 110.118576,410.501526 
	C110.388786,407.350494 110.149834,404.050873 111.018547,401.074524 
	C114.529129,389.046509 118.600479,377.179810 121.989136,365.119873 
	C123.192368,360.837677 123.041672,356.175018 123.293152,351.367584 
	C138.162689,297.413269 153.388123,243.816284 168.287491,190.128815 
	C179.407043,150.061325 190.105347,109.876915 201.241608,69.140770 
	C201.639450,68.203758 201.786926,67.870544 201.934418,67.537331 
	C201.934418,67.537331 201.899124,67.252106 202.304031,67.054543 
	C204.245529,65.704422 205.782135,64.551872 207.321014,63.402428 
	C208.826691,63.953846 210.330063,64.502151 211.833450,65.050461 
	C211.579437,85.334023 211.155212,105.617378 211.129395,125.901230 
	C211.111237,140.149353 211.899841,154.398926 211.859024,168.646500 
	C211.789078,193.062088 211.194199,217.476166 211.123001,241.891754 
	C211.073196,258.972168 211.680069,276.053802 211.708633,293.135376 
	C211.730240,306.056244 211.252686,318.977295 211.097275,331.899475 
	C211.035782,337.013306 211.244888,342.130432 210.865479,347.726013 
	C209.933655,349.135651 209.467148,350.065399 208.994537,351.300598 
	C208.982468,352.012329 208.976517,352.418549 208.787170,352.913940 
	C208.603790,353.003082 208.210693,353.111725 207.832428,353.083008 
	C206.302292,353.371124 205.150421,353.688019 203.644409,354.022827 
	C202.194672,355.028046 201.099106,356.015320 199.664764,357.072083 
	C196.214142,359.713196 193.102295,362.284851 189.754974,364.960388 
	C189.184998,365.132568 188.850525,365.200867 188.116089,365.216003 
	C186.149109,366.449493 184.582092,367.736115 183.007233,369.011353 
	C182.999390,369.000000 183.019958,369.016937 182.620575,369.012970 
	C179.481674,370.009796 176.742142,371.010620 173.709213,372.092712 
	C172.947235,372.781921 172.478638,373.389923 172.010040,373.997894 
z"/>
<path fill="#10213C" opacity="1.000000" stroke="none" 
	d="
M188.516052,365.269165 
	C188.850525,365.200867 189.184998,365.132568 190.094116,364.903992 
	C194.107986,362.495667 197.547226,360.247650 201.275391,357.892639 
	C202.375595,357.181488 203.186890,356.577332 204.316437,355.907776 
	C205.826691,354.932129 207.018692,354.021942 208.210693,353.111725 
	C208.210693,353.111725 208.603790,353.003082 209.065704,352.895966 
	C210.006012,352.518799 210.484390,352.248749 210.962769,351.978699 
	C217.853561,355.912354 224.883209,359.623383 231.609924,363.820007 
	C254.826279,378.304047 277.961426,392.918915 301.067780,407.578186 
	C305.802094,410.581726 310.277863,413.992767 315.002869,417.517639 
	C313.971649,417.883331 312.810333,418.003448 311.649017,418.003510 
	C245.440598,418.005524 179.232178,417.998535 113.023750,417.982483 
	C111.862579,417.982208 110.701439,417.860565 109.043350,417.659607 
	C109.899048,416.359009 111.129494,415.000488 112.622818,414.058929 
	C131.883865,401.914764 151.188049,389.839050 170.458527,377.709747 
	C171.712387,376.920532 172.780334,375.835938 174.088242,374.556458 
	C174.241730,374.224121 174.183594,374.172516 174.536255,374.147400 
	C177.599258,372.420532 180.309616,370.718750 183.019958,369.016968 
	C183.019958,369.016937 182.999390,369.000000 183.346527,368.946350 
	C185.301117,367.684875 186.908569,366.477020 188.516052,365.269165 
z"/>
<path fill="#284D8F" opacity="1.000000" stroke="none" 
	d="
M211.877533,64.580292 
	C210.330063,64.502151 208.826691,63.953846 207.321014,63.402428 
	C205.782135,64.551872 204.245529,65.704422 202.372528,66.928207 
	C203.740295,60.273201 205.444504,53.546970 207.519424,46.827709 
	C209.219284,47.555016 210.548401,48.275349 211.877533,48.995682 
	C211.892227,54.033829 211.906921,59.071976 211.877533,64.580292 
z"/>
<path fill="#2E508B" opacity="1.000000" stroke="none" 
	d="
M211.906403,48.580818 
	C210.548401,48.275349 209.219284,47.555016 207.674744,46.461727 
	C207.580307,45.564133 207.701294,45.039497 208.306427,44.259155 
	C209.796570,44.006489 210.802582,44.009533 211.808594,44.012581 
	C211.850815,45.397038 211.893051,46.781498 211.906403,48.580818 
z"/>
<path fill="#284D8F" opacity="1.000000" stroke="none" 
	d="
M211.847168,43.634846 
	C210.802582,44.009533 209.796570,44.006489 208.409698,44.004036 
	C208.102814,43.283054 208.176804,42.561478 208.274139,41.477058 
	C208.297470,41.114212 208.610794,41.054893 208.763062,41.007484 
	C209.623123,40.970985 210.330917,40.981895 211.386017,40.991142 
	C211.784149,41.745354 211.834946,42.501232 211.847168,43.634846 
z"/>
<path fill="#2E508B" opacity="1.000000" stroke="none" 
	d="
M210.982056,351.646362 
	C210.484390,352.248749 210.006012,352.518799 209.249100,352.806824 
	C208.976517,352.418549 208.982468,352.012329 209.251633,351.177795 
	C210.026123,350.493988 210.537384,350.238525 211.048645,349.983063 
	C211.032883,350.426697 211.017120,350.870361 210.982056,351.646362 
z"/>
<path fill="#284D8F" opacity="1.000000" stroke="none" 
	d="
M211.053864,349.654297 
	C210.537384,350.238525 210.026123,350.493988 209.257751,350.872284 
	C209.467148,350.065399 209.933655,349.135651 210.719238,348.107971 
	C211.045212,348.448547 211.052139,348.887024 211.053864,349.654297 
z"/>
<path fill="#284D8F" opacity="1.000000" stroke="none" 
	d="
M201.711578,67.717712 
	C201.786926,67.870544 201.639450,68.203758 201.314606,68.744034 
	C201.254410,68.600098 201.371582,68.249092 201.711578,67.717712 
z"/>
<path fill="#284D8F" opacity="1.000000" stroke="none" 
	d="
M172.384125,374.027283 
	C172.478638,373.389923 172.947235,372.781921 173.722321,372.453094 
	C174.080399,373.212341 174.131989,373.692413 174.183594,374.172516 
	C174.183594,374.172516 174.241730,374.224121 174.242676,374.263367 
	C173.748474,374.220612 173.253342,374.138641 172.384125,374.027283 
z"/>
<path fill="#2E508B" opacity="1.000000" stroke="none" 
	d="
M200.986481,357.999664 
	C197.547226,360.247650 194.107986,362.495667 190.329590,364.800079 
	C193.102295,362.284851 196.214142,359.713196 199.803329,357.261932 
	C200.485947,357.622375 200.721222,357.828186 200.986481,357.999664 
z"/>
<path fill="#2E508B" opacity="1.000000" stroke="none" 
	d="
M174.536255,374.147400 
	C174.131989,373.692413 174.080399,373.212341 174.015717,372.371826 
	C176.742142,371.010620 179.481674,370.009796 182.620575,369.013000 
	C180.309616,370.718750 177.599258,372.420532 174.536255,374.147400 
z"/>
<path fill="#2E508B" opacity="1.000000" stroke="none" 
	d="
M188.116089,365.216003 
	C186.908569,366.477020 185.301117,367.684875 183.354370,368.957703 
	C184.582092,367.736115 186.149109,366.449493 188.116089,365.216003 
z"/>
<path fill="#284D8F" opacity="1.000000" stroke="none" 
	d="
M201.275391,357.892639 
	C200.721222,357.828186 200.485947,357.622375 200.142105,357.192444 
	C201.099106,356.015320 202.194672,355.028046 203.644379,354.350891 
	C203.998413,355.098389 203.998291,355.535797 203.998169,355.973175 
	C203.186890,356.577332 202.375595,357.181488 201.275391,357.892639 
z"/>
<path fill="#2E508B" opacity="1.000000" stroke="none" 
	d="
M204.316437,355.907776 
	C203.998291,355.535797 203.998413,355.098389 203.998550,354.332947 
	C205.150421,353.688019 206.302292,353.371124 207.832428,353.083008 
	C207.018692,354.021942 205.826691,354.932129 204.316437,355.907776 
z"/>
</svg>