<svg version="1.1" id="Layer_1" xmlns="http://www.w3.org/2000/svg" xmlns:xlink="http://www.w3.org/1999/xlink" x="0px" y="0px"
	 width="100%" viewBox="0 0 1600 448" enable-background="new 0 0 1600 448" xml:space="preserve">
<path fill="#000000" opacity="1.000000" stroke="none" 
	d="
M1021.000000,449.000000 
	C680.708130,449.000000 340.916229,449.000000 1.062165,449.000000 
	C1.062165,299.726349 1.062165,150.452652 1.062165,1.089482 
	C534.333313,1.089482 1067.666626,1.089482 1600.964355,1.089482 
	C1600.964355,150.417236 1600.964355,299.708618 1600.964355,449.000000 
	C1407.785889,449.000000 1214.642944,449.000000 1021.000000,449.000000 
M144.506989,233.879044 
	C143.963989,235.575760 143.420990,237.272461 142.948288,238.974991 
	C142.948288,238.974991 142.952087,238.904556 142.256561,239.165298 
	C140.884979,242.152908 139.513412,245.140533 138.024857,248.469055 
	C138.024857,248.469055 137.993927,248.828125 137.334702,249.101349 
	C136.948898,250.396683 136.563095,251.692032 135.866028,253.646332 
	C119.097824,287.509979 102.329620,321.373657 85.195068,355.977142 
	C88.033394,355.977142 89.819168,355.977478 91.604942,355.977081 
	C110.743210,355.972717 129.881561,355.942078 149.019562,356.011963 
	C150.601593,356.017731 152.181137,356.704315 153.247986,357.470490 
	C153.324692,358.367371 153.661224,359.335114 153.438782,360.150360 
	C150.535034,370.791931 147.648819,381.440155 144.557709,392.028137 
	C142.204269,400.089417 139.565445,408.067383 136.999954,416.847839 
	C137.027695,417.617279 137.055435,418.386688 137.646591,419.769653 
	C138.307236,419.838074 138.967880,419.966400 139.628525,419.966431 
	C209.249695,419.971130 278.870850,419.970459 348.492004,419.932739 
	C349.937561,419.931976 351.382843,419.495483 352.894073,418.685944 
	C352.905609,418.492920 352.917114,418.299927 352.893158,417.344543 
	C348.604279,403.214325 344.315399,389.084137 339.962189,374.187500 
	C338.611328,370.491455 337.260437,366.795410 335.845856,362.577026 
	C335.846497,362.401642 335.847107,362.226227 336.000000,361.280426 
	C336.000000,359.684784 336.000000,358.089142 336.000000,355.951355 
	C357.982574,355.951355 379.696686,355.951355 402.134491,355.951355 
	C401.616241,353.990234 401.476257,352.615021 400.902893,351.453827 
	C399.344421,348.297485 397.442932,345.305664 395.963837,342.115875 
	C391.889435,333.329163 388.134369,324.391052 383.923218,315.672089 
	C380.249908,308.066833 375.979736,300.751251 372.245331,293.173615 
	C368.523712,285.621918 365.147339,277.900238 361.607239,270.258820 
	C356.043518,258.249298 350.551849,246.205368 344.865692,234.254028 
	C341.926270,228.075897 338.563843,222.100388 335.524750,215.967834 
	C333.366913,211.613663 331.554321,207.087494 329.370911,202.747101 
	C323.418243,190.913879 317.350708,179.138474 311.678009,166.999756 
	C311.512573,166.608978 311.347137,166.218201 310.962006,165.154785 
	C309.120605,162.080750 307.043274,159.121552 305.481262,155.911575 
	C300.435516,145.542480 295.687225,135.028366 290.619263,124.670479 
	C285.678894,114.573296 280.452393,104.616486 275.420532,94.563515 
	C273.304291,90.335594 271.360535,86.021233 269.347107,81.742035 
	C266.822052,76.375450 264.365356,70.975708 261.769440,65.643723 
	C259.143311,60.249763 256.312683,54.955128 253.702118,49.553932 
	C251.234390,44.448261 248.996857,39.230980 246.506409,34.136944 
	C246.065704,33.235500 244.881287,32.697647 243.343994,32.226624 
	C235.101852,48.695560 226.844604,65.156975 218.645325,81.647232 
	C217.963013,83.019447 217.672287,84.586357 217.059418,86.468704 
	C217.059418,86.468704 216.994598,86.893204 216.324127,87.144241 
	C215.608276,88.781891 214.892426,90.419533 214.047989,92.463539 
	C214.047989,92.463539 213.992416,92.886131 213.305771,93.148483 
	C211.228195,97.226357 209.038910,101.251907 207.098755,105.394142 
	C204.046219,111.911324 201.161392,118.507057 198.061890,125.469284 
	C198.061890,125.469284 198.001419,125.889740 197.307800,126.158920 
	C194.831604,131.427872 192.355392,136.696823 189.972076,141.979874 
	C189.972076,141.979874 189.985733,141.886917 189.428772,142.045410 
	C189.339874,142.379532 189.250977,142.713654 189.041992,143.443314 
	C189.041992,143.443314 188.998718,143.854416 188.290314,144.125015 
	C185.258957,150.169205 182.157898,156.179916 179.229813,162.273743 
	C178.021713,164.788025 177.185135,167.480820 176.045563,170.472610 
	C176.045563,170.472610 176.005219,170.873718 175.324982,171.141296 
	C174.499481,173.079361 173.673996,175.017441 172.933334,176.962982 
	C172.933334,176.962982 172.939865,176.878067 172.251297,177.149796 
	C171.278488,179.125381 170.270081,181.084335 169.338913,183.079361 
	C164.846069,192.705307 160.374039,202.340988 155.960907,211.985962 
	C155.960907,211.985962 155.964249,211.918549 155.310806,212.118073 
	C154.924896,213.111511 154.538971,214.104950 154.009323,215.435669 
	C154.009323,215.435669 153.988403,215.801712 153.297134,216.092758 
	C151.918228,219.418610 150.539322,222.744461 149.034012,226.458420 
	C149.034012,226.458420 148.991821,226.864395 148.324738,227.124069 
	C147.380936,229.125900 146.437134,231.127747 145.187943,233.220795 
	C145.187943,233.220795 145.102249,233.527771 144.506989,233.879044 
M1148.011475,151.596191 
	C1148.011475,151.596191 1148.047729,152.052277 1148.240601,152.676880 
	C1148.973877,155.439651 1149.652222,158.218475 1150.453491,160.961380 
	C1151.647095,165.047791 1152.786743,169.159256 1154.219971,173.163239 
	C1155.205688,175.917099 1156.734375,178.471481 1157.864868,181.179977 
	C1159.005249,183.912903 1158.912231,186.810226 1160.356323,189.768204 
	C1163.575928,196.362900 1164.909668,203.878296 1166.996460,210.998230 
	C1166.996460,210.998230 1166.975830,210.981659 1166.990479,211.712219 
	C1167.997437,214.480774 1169.004517,217.249329 1169.997192,219.998825 
	C1169.997192,219.998825 1169.977539,219.983337 1170.066040,220.646561 
	C1170.381836,221.438232 1170.697632,222.229889 1170.995605,222.998642 
	C1170.995605,222.998642 1170.972778,222.979858 1171.000244,223.647568 
	C1173.337891,230.107513 1175.675415,236.567459 1177.996216,243.002548 
	C1177.996216,243.002548 1177.972534,242.983932 1178.065552,243.575790 
	C1179.267578,246.952072 1180.469727,250.328354 1181.199585,254.052551 
	C1181.221191,254.505692 1181.242676,254.958817 1181.264282,255.411926 
	C1181.631836,255.040665 1181.999390,254.669388 1182.669800,254.837891 
	C1183.307129,257.120941 1183.812622,259.451111 1184.608154,261.677673 
	C1186.476685,266.907379 1188.578003,272.055023 1190.386719,277.304230 
	C1191.078369,279.311615 1191.005981,281.578583 1191.669556,283.600037 
	C1193.389038,288.837646 1195.443726,293.965912 1197.132080,299.212738 
	C1198.334595,302.949921 1198.894043,306.904724 1200.226318,310.586609 
	C1201.638550,314.489502 1203.956787,318.071838 1205.288940,321.994690 
	C1207.755737,329.259460 1209.792480,336.670319 1211.997314,344.001740 
	C1211.997314,344.001740 1211.979614,343.988770 1212.071411,344.563904 
	C1214.255005,349.775848 1216.701050,354.897339 1218.538818,360.228485 
	C1220.004761,364.480377 1222.269165,366.131622 1226.928223,366.046661 
	C1242.420898,365.764313 1257.930786,365.671906 1273.415649,366.130554 
	C1278.844604,366.291321 1281.233398,364.135956 1282.802246,359.514160 
	C1286.322754,349.142700 1290.249268,338.905640 1293.614990,328.486023 
	C1298.560059,313.177063 1303.044067,297.719513 1307.941528,282.394623 
	C1312.094238,269.399536 1316.561523,256.505066 1320.876587,243.561676 
	C1324.170532,233.680939 1327.426147,223.787292 1330.732666,213.910706 
	C1334.182007,203.607162 1337.644531,193.307831 1341.155151,183.025085 
	C1342.958130,177.744614 1344.818115,172.481644 1346.768311,167.254044 
	C1348.064331,163.780151 1349.565674,160.382874 1351.255371,156.332260 
	C1351.498291,155.230011 1351.741089,154.127777 1352.654053,152.659714 
	C1353.189209,149.068893 1350.420898,150.026382 1348.728027,150.018646 
	C1332.088379,149.942581 1315.448242,149.947327 1298.808594,150.019318 
	C1297.859985,150.023422 1296.914795,150.814041 1295.971069,151.598297 
	C1295.971069,151.598297 1295.982300,151.957794 1295.686035,152.454834 
	C1295.427490,152.971970 1295.168945,153.489105 1294.588745,154.294891 
	C1294.383423,154.498047 1294.196289,154.716827 1293.751587,155.369766 
	C1290.272095,167.425827 1286.817993,179.489304 1283.299927,191.534119 
	C1281.991455,196.013763 1280.519897,200.445602 1279.145264,204.906174 
	C1274.869507,218.780991 1270.563232,232.646576 1266.348389,246.539886 
	C1262.680054,258.631378 1259.152832,270.765594 1255.489502,282.858582 
	C1254.533691,286.013611 1253.308594,289.087402 1252.194702,292.194031 
	C1251.732544,293.482849 1251.238037,294.760010 1250.758301,296.042511 
	C1249.900635,294.787689 1248.627197,293.643280 1248.259521,292.258362 
	C1246.862671,286.997620 1246.043335,281.573242 1244.474976,276.370758 
	C1242.383545,269.433990 1239.544922,262.721619 1237.474854,255.779373 
	C1233.808716,243.484589 1230.635986,231.042404 1226.952393,218.753159 
	C1224.674438,211.153503 1221.784058,203.738937 1219.287598,196.201904 
	C1218.784546,194.683151 1218.870361,192.977585 1218.588623,191.375092 
	C1218.253174,189.467438 1218.007690,187.510925 1217.378540,185.694977 
	C1216.145996,182.137405 1214.520386,178.713821 1213.333740,175.142944 
	C1210.784790,167.472916 1208.411377,159.744583 1206.022827,151.608078 
	C1206.022827,151.608078 1206.078369,151.176498 1206.206299,150.547882 
	C1205.585327,150.374207 1204.964722,150.050354 1204.343384,150.048691 
	C1186.462646,150.000977 1168.582031,149.968430 1150.701416,150.014969 
	C1149.796631,150.017319 1148.893677,150.747726 1148.011475,151.596191 
M556.977173,262.997192 
	C565.130005,262.982819 573.284241,262.874390 581.435242,262.988373 
	C586.557251,263.059998 591.674683,263.465332 597.424805,263.978088 
	C598.302917,266.049988 599.117065,268.152130 600.077515,270.185181 
	C601.001038,272.140015 602.104553,274.008881 603.076477,275.941986 
	C604.087891,277.953552 605.036316,279.996765 605.996826,282.002533 
	C605.996826,282.002533 605.974609,281.985077 605.935913,282.749420 
	C606.142822,283.697113 606.048889,284.902374 606.604675,285.551270 
	C610.680603,290.310211 612.802734,295.901276 614.224487,301.901367 
	C614.526062,303.174164 615.911438,304.192169 616.803955,305.322388 
	C617.641357,306.382690 618.786377,307.312927 619.280945,308.512756 
	C622.383240,316.039062 625.243042,323.666412 628.412048,331.163513 
	C629.278137,333.212555 631.227173,334.794525 632.151611,336.830414 
	C633.536865,339.880951 634.214417,343.257050 635.641602,346.283051 
	C637.037659,349.242828 638.995850,351.937469 640.293884,355.110962 
	C640.305176,355.528107 640.316528,355.945282 640.327881,356.362396 
	C640.654846,355.991547 640.981812,355.620697 641.649292,355.685120 
	C643.940002,365.042664 645.113464,365.939423 655.407043,365.953339 
	C672.205078,365.976105 689.003174,365.969086 705.801208,365.974457 
	C707.741394,365.975067 709.681641,365.974548 712.423218,365.974548 
	C711.732178,363.601715 711.505615,361.991638 710.818359,360.610840 
	C708.091919,355.132965 705.109619,349.781158 702.435425,344.278931 
	C699.648804,338.545502 697.354187,332.564209 694.409729,326.917969 
	C687.779724,314.204315 680.869385,301.637085 674.114380,288.988159 
	C673.577026,287.981995 673.455811,286.760803 672.975281,285.715851 
	C671.016541,281.455902 668.993103,277.225708 667.001648,272.999329 
	C667.001648,272.999329 667.016113,273.009644 666.824585,272.383057 
	C664.877991,268.579803 662.931335,264.776550 661.004883,260.999908 
	C661.004883,260.999908 661.030945,261.021271 660.835327,260.354279 
	C659.229614,257.779907 657.623901,255.205521 655.886841,252.420609 
	C666.736938,245.596542 677.273560,239.674774 683.849060,229.012100 
	C687.619141,222.898529 692.423523,217.325165 695.481628,210.899170 
	C698.231873,205.120163 699.328064,198.534119 700.988037,192.260193 
	C704.658813,178.386795 703.552124,164.181168 702.578186,150.218399 
	C701.953125,141.256699 699.061890,132.259598 695.984802,123.710915 
	C692.052856,112.787384 684.602905,104.270363 676.148865,96.104164 
	C664.179810,84.542633 649.096619,80.135674 634.249573,75.393921 
	C627.065491,73.099525 618.753906,74.043449 610.951660,74.026085 
	C573.313110,73.942284 535.674133,74.030304 497.608368,73.993790 
	C497.608368,73.993790 497.179291,73.952980 496.550751,73.859612 
	C496.364014,75.477478 496.014313,77.095306 496.013885,78.713234 
	C495.988464,172.566528 495.986359,266.419830 496.033264,360.273102 
	C496.034180,362.155823 496.640076,364.038208 497.516663,365.910278 
	C497.700378,365.895142 497.884094,365.880035 498.995667,365.907928 
	C517.296448,365.914825 535.597168,365.921753 554.492188,365.947876 
	C554.689941,365.949310 554.887695,365.950714 555.843750,365.539246 
	C555.892639,363.881744 555.982605,362.224274 555.984314,360.566742 
	C556.017334,328.037659 556.040039,295.508606 556.006958,263.007111 
	C556.006958,263.007111 556.047424,263.056946 556.977173,262.997192 
M955.522461,314.763947 
	C956.309326,317.215424 956.616821,319.979523 957.973145,322.059692 
	C962.016602,328.261078 965.980652,334.635925 970.904358,340.107300 
	C975.819092,345.568665 981.339478,350.855164 987.539246,354.690979 
	C994.431885,358.955414 1002.133911,362.447784 1009.947449,364.562805 
	C1021.923645,367.804688 1034.214355,370.331879 1046.533813,371.680878 
	C1053.290649,372.420746 1060.355347,369.781769 1067.325317,369.283600 
	C1075.830811,368.675659 1083.797363,366.673187 1091.194458,362.418060 
	C1092.345337,361.756073 1093.550659,360.994171 1094.819214,360.763092 
	C1103.293335,359.219482 1109.223511,353.156921 1115.101440,347.960449 
	C1121.062500,342.690338 1125.355103,335.433746 1129.963623,328.760773 
	C1134.723022,321.869385 1136.825562,313.906769 1138.471436,304.884644 
	C1132.883911,304.504669 1127.867554,304.263000 1122.871338,303.802032 
	C1113.873779,302.971832 1104.855835,302.246979 1095.908691,301.022522 
	C1089.669434,300.168610 1085.067749,302.362000 1081.970581,307.438110 
	C1073.820435,320.795532 1060.690430,324.161407 1046.585449,324.687866 
	C1041.367554,324.882629 1035.802368,323.144775 1030.843994,321.165192 
	C1023.667908,318.300232 1016.839233,314.410492 1012.214417,307.864594 
	C1009.572571,304.125366 1007.141907,300.173431 1005.146057,296.060150 
	C1003.366394,292.392303 1001.626160,288.463013 1001.094238,284.485199 
	C1000.141479,277.359955 1000.919006,276.875854 1008.217651,276.876617 
	C1049.712769,276.880951 1091.207886,276.896759 1132.703003,276.904602 
	C1134.369019,276.904907 1136.085571,277.102051 1137.683838,276.761963 
	C1138.813232,276.521667 1140.458008,275.716492 1140.703857,274.836884 
	C1141.677368,271.351929 1142.731201,267.743286 1142.763062,264.171631 
	C1142.830444,256.626740 1142.278931,249.076050 1141.963379,241.528488 
	C1141.942871,241.038635 1141.761597,240.556763 1141.669312,240.068466 
	C1140.549805,234.148407 1139.433105,228.227783 1138.661255,222.038300 
	C1138.352173,221.932236 1138.042969,221.826187 1137.452515,221.210403 
	C1137.508423,220.232773 1137.889893,219.130280 1137.570190,218.296646 
	C1134.008789,209.011169 1131.272705,199.243576 1126.452881,190.649841 
	C1120.912842,180.771820 1113.717896,172.006790 1104.197021,165.016632 
	C1091.376709,155.604111 1077.406982,149.725586 1061.893311,147.321304 
	C1054.544434,146.182404 1047.020142,144.856674 1039.683350,145.321320 
	C1031.978638,145.809280 1024.358398,148.157501 1016.787354,150.039017 
	C1011.884338,151.257507 1007.135742,153.097183 1002.033936,154.370590 
	C1001.931702,154.666092 1001.829468,154.961594 1001.245544,155.673859 
	C991.128845,160.529449 981.396729,165.876144 974.347107,175.044342 
	C972.383972,177.597519 969.524475,179.495270 967.731689,182.138351 
	C964.320435,187.167557 961.381775,192.517288 957.961853,197.430374 
	C957.864807,197.725555 957.767761,198.020737 957.528748,198.829727 
	C955.857422,203.058258 954.040039,207.235855 952.544250,211.525574 
	C949.087280,221.440155 946.838013,231.628754 945.849365,242.103241 
	C945.659058,244.119308 944.280090,246.070114 944.284729,248.049057 
	C944.299866,254.489532 944.685608,260.929810 944.960999,267.368774 
	C945.155579,271.919586 945.007874,276.530731 945.716980,281.003326 
	C946.834534,288.052429 948.543640,295.007751 950.000000,302.000000 
	C950.000000,302.000000 949.995117,301.997009 950.073608,302.662506 
	C950.387451,303.451050 950.701355,304.239624 950.995544,305.001526 
	C950.995544,305.001526 950.969788,304.980560 950.957397,305.739502 
	C952.256348,308.455841 953.555359,311.172180 954.522461,314.141205 
	C954.488464,314.418396 954.454529,314.695557 954.420532,314.972748 
	C954.663879,314.693542 954.907288,314.414337 955.522461,314.763947 
M919.472778,231.179733 
	C917.841675,219.383636 914.931274,208.114624 909.597717,197.235306 
	C905.219238,188.304184 900.205627,180.355850 893.092468,173.349472 
	C885.909302,166.274277 878.219788,160.506760 869.262573,155.671036 
	C855.231873,148.096390 839.981140,147.267868 824.920654,145.157745 
	C821.044128,144.614609 816.879395,146.565872 812.808899,146.885483 
	C802.174377,147.720490 792.189209,150.933151 782.029053,154.340668 
	C781.925354,154.649887 781.821716,154.959091 781.231445,155.679092 
	C757.672302,166.219559 742.429260,184.425797 733.000000,208.000992 
	C733.000000,208.000992 732.995789,208.008575 732.323730,208.366379 
	C731.724182,210.972198 731.055054,213.564316 730.538818,216.186539 
	C729.238403,222.791763 728.036926,229.416473 726.736267,236.021667 
	C725.999512,239.762817 724.433960,243.489716 724.480164,247.207611 
	C724.608521,257.534668 726.753662,268.029694 725.455994,278.118011 
	C724.484985,285.666870 728.728149,291.330200 728.958069,298.268097 
	C729.128357,303.407104 733.814697,308.311035 734.367493,313.543823 
	C735.108032,320.552826 740.184143,324.643341 742.982788,330.182434 
	C745.676392,335.513611 749.387817,340.108734 754.699951,343.463745 
	C757.794922,345.418457 759.614441,349.388763 762.706116,351.353394 
	C773.300964,358.085815 784.175842,364.513855 796.756287,366.819794 
	C807.628784,368.812714 818.565491,370.551086 829.540222,371.833618 
	C832.983582,372.236023 836.629395,370.695496 840.206116,370.223999 
	C844.160339,369.702789 848.373962,370.076538 852.060852,368.833405 
	C858.834717,366.549286 866.578491,367.033417 872.391418,361.948456 
	C872.628418,361.741180 872.987671,361.632507 873.308105,361.567749 
	C881.846985,359.841705 888.251282,354.163757 894.457520,348.873871 
	C901.938843,342.497040 907.628479,334.171356 911.774536,325.237885 
	C914.631042,319.082855 919.023010,313.139313 917.908325,304.861877 
	C909.716125,304.222443 901.493347,303.658081 893.287170,302.911560 
	C888.216980,302.450317 883.172058,301.711670 878.320618,300.945801 
	C878.167297,300.910400 878.014038,300.874969 876.972046,300.905212 
	C870.910522,300.103394 865.815552,301.656128 862.451599,307.094025 
	C854.887146,319.322266 842.795959,323.609985 829.565552,324.799713 
	C816.729370,325.954010 805.774414,320.398285 796.549194,311.910889 
	C792.404358,308.097534 788.761719,303.420868 786.005249,298.510529 
	C783.541870,294.122345 782.610352,288.874176 781.000000,284.000000 
	C781.000000,284.000000 780.996704,283.997650 780.885010,283.261414 
	C778.741394,277.128113 778.899536,276.919952 785.805359,276.864441 
	C787.304810,276.852386 788.804504,276.866364 790.304077,276.866791 
	C831.792236,276.879211 873.280396,276.899323 914.768555,276.881836 
	C916.985718,276.880890 919.202820,276.562836 921.595276,276.378937 
	C921.139832,261.224365 920.703918,246.719131 920.587158,231.850647 
	C920.527222,231.449905 920.467285,231.049164 920.407349,230.648392 
	C920.204346,231.040588 920.001343,231.432800 919.472778,231.179733 
M1359.564697,281.805237 
	C1359.855225,284.766846 1359.766724,287.827301 1360.508545,290.671173 
	C1362.560059,298.535583 1364.415039,306.525269 1367.402344,314.046600 
	C1369.540405,319.429565 1374.110718,323.844604 1376.261597,329.224823 
	C1378.596680,335.065918 1382.172852,339.513580 1386.869263,343.288116 
	C1395.803223,350.468536 1404.398682,358.409760 1415.411865,362.185364 
	C1425.158447,365.526733 1435.237915,368.057404 1445.334351,370.158661 
	C1451.725342,371.488770 1458.428345,371.893585 1464.969971,371.749268 
	C1470.428467,371.628845 1475.839722,369.986938 1481.301025,369.230347 
	C1491.573242,367.807190 1501.530273,365.422119 1510.976318,360.621979 
	C1511.071533,360.332397 1511.166870,360.042816 1511.768799,359.392883 
	C1516.785767,355.906830 1521.701294,352.262238 1526.843262,348.971527 
	C1534.737427,343.919495 1539.605957,336.475006 1543.792480,328.423615 
	C1545.921631,324.328796 1548.013550,320.214630 1550.555786,315.890869 
	C1550.637207,315.750061 1550.818237,315.570465 1550.781372,315.475586 
	C1550.670532,315.190582 1550.474731,314.938538 1550.320557,313.949097 
	C1550.814819,312.199432 1551.721924,310.436371 1551.665527,308.704620 
	C1551.624634,307.448944 1550.470581,305.316833 1549.533081,305.150269 
	C1543.151489,304.016418 1536.709839,303.164520 1530.259521,302.488800 
	C1524.201660,301.854187 1518.033691,301.994324 1512.052368,300.979065 
	C1505.301514,299.833282 1501.525391,301.752747 1496.798462,306.688416 
	C1490.242798,313.533539 1484.649292,322.438568 1473.159668,322.109375 
	C1470.727417,322.039703 1467.972046,322.371735 1465.875610,323.481873 
	C1459.540527,326.836334 1453.556519,324.046112 1447.752686,322.543060 
	C1437.295410,319.834808 1428.943604,313.606476 1423.226685,304.348633 
	C1420.064575,299.228058 1416.398804,294.028809 1414.906982,288.353271 
	C1412.342896,278.598633 1412.148804,276.744598 1423.444702,276.807129 
	C1464.734619,277.035675 1506.026611,276.908661 1547.317749,276.909698 
	C1555.786255,276.909912 1555.802002,276.844391 1555.155640,268.762085 
	C1554.970459,266.444427 1555.069458,264.103241 1555.057251,261.772736 
	C1555.000244,250.851486 1555.726074,240.000763 1553.230713,229.077667 
	C1550.975220,219.205521 1548.978027,209.346558 1545.000000,200.000000 
	C1545.000000,200.000000 1545.001343,200.001419 1544.851807,199.306946 
	C1542.977905,196.099716 1540.719971,193.052551 1539.303589,189.654633 
	C1535.364868,180.205856 1528.537231,172.726624 1520.877808,166.797592 
	C1512.521118,160.328827 1502.436768,156.091766 1492.889038,150.450272 
	C1492.475464,150.524673 1492.062012,150.599075 1491.005371,150.654602 
	C1489.659546,150.235550 1488.340820,149.627365 1486.963257,149.429581 
	C1480.369507,148.482986 1473.364624,148.739532 1467.245728,146.524475 
	C1457.310547,142.927856 1448.101685,146.194702 1438.803345,147.802826 
	C1431.021729,149.148621 1423.358032,151.815994 1416.003052,154.790741 
	C1409.828369,157.288055 1403.646973,160.397934 1398.433960,164.471970 
	C1392.895264,168.800705 1388.092163,174.266739 1383.701050,179.816299 
	C1378.706909,186.128021 1373.397827,192.593033 1370.241455,199.866226 
	C1364.913208,212.143936 1360.103760,224.799896 1359.586060,238.550369 
	C1359.261475,247.168030 1358.350342,255.764847 1358.080688,264.382874 
	C1357.910645,269.813538 1358.439087,275.266083 1358.290405,281.075195 
	C1358.310913,281.466919 1358.331299,281.858612 1358.351807,282.250336 
	C1358.660522,281.911346 1358.969116,281.572357 1359.564697,281.805237 
z"/>
<path fill="#11223A" opacity="1.000000" stroke="none" 
	d="
M498.035339,74.057381 
	C535.674133,74.030304 573.313110,73.942284 610.951660,74.026085 
	C618.753906,74.043449 627.065491,73.099525 634.249573,75.393921 
	C649.096619,80.135674 664.179810,84.542633 676.148865,96.104164 
	C684.602905,104.270363 692.052856,112.787384 695.984802,123.710915 
	C699.061890,132.259598 701.953125,141.256699 702.578186,150.218399 
	C703.552124,164.181168 704.658813,178.386795 700.988037,192.260193 
	C699.328064,198.534119 698.231873,205.120163 695.481628,210.899170 
	C692.423523,217.325165 687.619141,222.898529 683.849060,229.012100 
	C677.273560,239.674774 666.736938,245.596542 655.886841,252.420609 
	C657.623901,255.205521 659.229614,257.779907 660.883667,260.698364 
	C660.931946,261.042480 660.984680,260.973328 660.984680,260.973328 
	C662.931335,264.776550 664.877991,268.579803 666.892151,272.719055 
	C666.959717,273.055084 666.993530,272.984528 666.993530,272.984528 
	C668.993103,277.225708 671.016541,281.455902 672.975281,285.715851 
	C673.455811,286.760803 673.577026,287.981995 674.114380,288.988159 
	C680.869385,301.637085 687.779724,314.204315 694.409729,326.917969 
	C697.354187,332.564209 699.648804,338.545502 702.435425,344.278931 
	C705.109619,349.781158 708.091919,355.132965 710.818359,360.610840 
	C711.505615,361.991638 711.732178,363.601715 712.423218,365.974548 
	C709.681641,365.974548 707.741394,365.975067 705.801208,365.974457 
	C689.003174,365.969086 672.205078,365.976105 655.407043,365.953339 
	C645.113464,365.939423 643.940002,365.042664 641.328125,355.342773 
	C641.006958,355.000427 640.707214,354.748505 640.707214,354.748505 
	C638.995850,351.937469 637.037659,349.242828 635.641602,346.283051 
	C634.214417,343.257050 633.536865,339.880951 632.151611,336.830414 
	C631.227173,334.794525 629.278137,333.212555 628.412048,331.163513 
	C625.243042,323.666412 622.383240,316.039062 619.280945,308.512756 
	C618.786377,307.312927 617.641357,306.382690 616.803955,305.322388 
	C615.911438,304.192169 614.526062,303.174164 614.224487,301.901367 
	C612.802734,295.901276 610.680603,290.310211 606.604675,285.551270 
	C606.048889,284.902374 606.142822,283.697113 605.996826,282.352081 
	C606.057739,281.954742 606.012329,282.026154 606.012329,282.026154 
	C605.036316,279.996765 604.087891,277.953552 603.076477,275.941986 
	C602.104553,274.008881 601.001038,272.140015 600.077515,270.185181 
	C599.117065,268.152130 598.302917,266.049988 597.118286,263.619507 
	C596.837830,262.952087 596.909851,262.654358 596.694214,262.095215 
	C594.757385,261.550262 593.155701,261.053467 591.550659,261.041931 
	C581.462097,260.969360 571.372314,260.958801 561.284058,261.047760 
	C559.521179,261.063324 557.763245,261.647583 555.988281,262.242188 
	C555.998169,262.695770 556.022827,262.876373 556.047424,263.056946 
	C556.047424,263.056946 556.006958,263.007111 555.773071,262.965149 
	C555.365051,262.950562 555.190979,262.977966 554.796265,263.355103 
	C554.381653,265.840118 554.022827,267.975006 554.018311,270.110657 
	C553.950745,302.049927 553.929871,333.989288 553.897949,365.928650 
	C535.597168,365.921753 517.296448,365.914825 498.517578,365.431519 
	C498.038086,267.989166 498.036713,171.023285 498.035339,74.057381 
M554.739380,126.747299 
	C554.488953,128.028915 554.023376,129.310059 554.020447,130.592239 
	C553.975098,150.318466 553.970581,170.044891 554.030701,189.771042 
	C554.035095,191.204315 554.610168,192.635849 555.046875,194.374695 
	C555.046875,194.374695 555.015381,194.704956 554.840820,195.292297 
	C554.798218,195.492050 554.755554,195.691788 554.402771,196.653625 
	C554.516663,200.811081 552.059204,205.305313 556.948364,209.022430 
	C575.087158,208.842178 593.244385,209.092468 611.357422,208.313477 
	C621.546143,207.875305 629.258728,202.078537 635.741577,194.095963 
	C645.489624,182.092712 646.440247,168.713669 643.485291,154.463165 
	C642.968140,151.969315 641.831177,149.504990 640.516235,147.304489 
	C639.290527,145.253418 637.394592,143.612976 635.889771,141.715561 
	C634.526306,139.996353 633.655945,137.238480 631.934570,136.570053 
	C626.380859,134.413513 623.329651,128.193481 616.419617,128.048492 
	C611.617371,127.947746 606.875671,125.335526 602.065186,125.185684 
	C588.601196,124.766304 575.115234,124.998482 561.638794,125.094658 
	C559.720703,125.108337 557.807312,125.794373 555.532898,126.132507 
	C555.532898,126.132507 555.181885,126.050331 554.739380,126.747299 
z"/>
<path fill="#11213A" opacity="1.000000" stroke="none" 
	d="
M1544.998169,199.996307 
	C1548.978027,209.346558 1550.975220,219.205521 1553.230713,229.077667 
	C1555.726074,240.000763 1555.000244,250.851486 1555.057251,261.772736 
	C1555.069458,264.103241 1554.970459,266.444427 1555.155640,268.762085 
	C1555.802002,276.844391 1555.786255,276.909912 1547.317749,276.909698 
	C1506.026611,276.908661 1464.734619,277.035675 1423.444702,276.807129 
	C1412.148804,276.744598 1412.342896,278.598633 1414.906982,288.353271 
	C1416.398804,294.028809 1420.064575,299.228058 1423.226685,304.348633 
	C1428.943604,313.606476 1437.295410,319.834808 1447.752686,322.543060 
	C1453.556519,324.046112 1459.540527,326.836334 1465.875610,323.481873 
	C1467.972046,322.371735 1470.727417,322.039703 1473.159668,322.109375 
	C1484.649292,322.438568 1490.242798,313.533539 1496.798462,306.688416 
	C1501.525391,301.752747 1505.301514,299.833282 1512.052368,300.979065 
	C1518.033691,301.994324 1524.201660,301.854187 1530.259521,302.488800 
	C1536.709839,303.164520 1543.151489,304.016418 1549.533081,305.150269 
	C1550.470581,305.316833 1551.624634,307.448944 1551.665527,308.704620 
	C1551.721924,310.436371 1550.814819,312.199432 1550.159546,314.497772 
	C1549.998535,315.046448 1549.687378,315.421173 1549.649658,315.471863 
	C1549.611816,315.522522 1549.809326,315.803833 1549.887207,315.880463 
	C1549.965210,315.957092 1550.122314,316.109192 1550.122314,316.109192 
	C1548.013550,320.214630 1545.921631,324.328796 1543.792480,328.423615 
	C1539.605957,336.475006 1534.737427,343.919495 1526.843262,348.971527 
	C1521.701294,352.262238 1516.785767,355.906830 1511.370117,359.718384 
	C1510.971436,360.043884 1510.682739,360.336517 1510.682739,360.336517 
	C1501.530273,365.422119 1491.573242,367.807190 1481.301025,369.230347 
	C1475.839722,369.986938 1470.428467,371.628845 1464.969971,371.749268 
	C1458.428345,371.893585 1451.725342,371.488770 1445.334351,370.158661 
	C1435.237915,368.057404 1425.158447,365.526733 1415.411865,362.185364 
	C1404.398682,358.409760 1395.803223,350.468536 1386.869263,343.288116 
	C1382.172852,339.513580 1378.596680,335.065918 1376.261597,329.224823 
	C1374.110718,323.844604 1369.540405,319.429565 1367.402344,314.046600 
	C1364.415039,306.525269 1362.560059,298.535583 1360.508545,290.671173 
	C1359.766724,287.827301 1359.855225,284.766846 1359.265625,281.387939 
	C1358.966431,280.970673 1358.654175,280.708801 1358.654175,280.708801 
	C1358.439087,275.266083 1357.910645,269.813538 1358.080688,264.382874 
	C1358.350342,255.764847 1359.261475,247.168030 1359.586060,238.550369 
	C1360.103760,224.799896 1364.913208,212.143936 1370.241455,199.866226 
	C1373.397827,192.593033 1378.706909,186.128021 1383.701050,179.816299 
	C1388.092163,174.266739 1392.895264,168.800705 1398.433960,164.471970 
	C1403.646973,160.397934 1409.828369,157.288055 1416.003052,154.790741 
	C1423.358032,151.815994 1431.021729,149.148621 1438.803345,147.802826 
	C1448.101685,146.194702 1457.310547,142.927856 1467.245728,146.524475 
	C1473.364624,148.739532 1480.369507,148.482986 1486.963257,149.429581 
	C1488.340820,149.627365 1489.659546,150.235550 1491.516968,150.820953 
	C1492.028564,150.987305 1492.410034,151.299301 1492.463257,151.336411 
	C1492.516479,151.373520 1492.813354,151.175110 1492.886719,151.102112 
	C1492.960083,151.029129 1493.105591,150.881943 1493.105591,150.881927 
	C1502.436768,156.091766 1512.521118,160.328827 1520.877808,166.797592 
	C1528.537231,172.726624 1535.364868,180.205856 1539.303589,189.654633 
	C1540.719971,193.052551 1542.977905,196.099716 1544.912231,199.684784 
	C1544.972656,200.062637 1544.998169,199.996307 1544.998169,199.996307 
M1435.808228,197.266434 
	C1433.578857,199.381241 1431.546509,201.765991 1429.084717,203.562088 
	C1420.415283,209.887299 1416.887207,219.133774 1414.275269,228.922226 
	C1412.462402,235.716125 1413.436279,236.988144 1420.293213,236.994446 
	C1443.245361,237.015549 1466.197510,236.997833 1489.149658,236.995651 
	C1501.312134,236.994492 1501.306641,236.996445 1498.515869,225.384644 
	C1498.406372,224.928909 1498.775879,224.338028 1498.625854,223.915161 
	C1497.253906,220.046341 1496.317261,215.904449 1494.261597,212.428909 
	C1492.060547,208.707520 1489.148071,205.208252 1485.891846,202.359711 
	C1481.767822,198.751770 1477.400879,194.422440 1472.402588,193.010971 
	C1460.172852,189.557388 1447.713989,189.319611 1435.808228,197.266434 
z"/>
<path fill="#11213A" opacity="1.000000" stroke="none" 
	d="
M878.115784,301.097534 
	C883.172058,301.711670 888.216980,302.450317 893.287170,302.911560 
	C901.493347,303.658081 909.716125,304.222443 917.908325,304.861877 
	C919.023010,313.139313 914.631042,319.082855 911.774536,325.237885 
	C907.628479,334.171356 901.938843,342.497040 894.457520,348.873871 
	C888.251282,354.163757 881.846985,359.841705 873.308105,361.567749 
	C872.987671,361.632507 872.628418,361.741180 872.391418,361.948456 
	C866.578491,367.033417 858.834717,366.549286 852.060852,368.833405 
	C848.373962,370.076538 844.160339,369.702789 840.206116,370.223999 
	C836.629395,370.695496 832.983582,372.236023 829.540222,371.833618 
	C818.565491,370.551086 807.628784,368.812714 796.756287,366.819794 
	C784.175842,364.513855 773.300964,358.085815 762.706116,351.353394 
	C759.614441,349.388763 757.794922,345.418457 754.699951,343.463745 
	C749.387817,340.108734 745.676392,335.513611 742.982788,330.182434 
	C740.184143,324.643341 735.108032,320.552826 734.367493,313.543823 
	C733.814697,308.311035 729.128357,303.407104 728.958069,298.268097 
	C728.728149,291.330200 724.484985,285.666870 725.455994,278.118011 
	C726.753662,268.029694 724.608521,257.534668 724.480164,247.207611 
	C724.433960,243.489716 725.999512,239.762817 726.736267,236.021667 
	C728.036926,229.416473 729.238403,222.791763 730.538818,216.186539 
	C731.055054,213.564316 731.724182,210.972198 732.694702,208.192963 
	C733.065674,208.019547 733.005798,207.996414 733.005798,207.996414 
	C742.429260,184.425797 757.672302,166.219559 781.625244,155.323959 
	C782.019104,154.968826 782.317139,154.666245 782.317139,154.666245 
	C792.189209,150.933151 802.174377,147.720490 812.808899,146.885483 
	C816.879395,146.565872 821.044128,144.614609 824.920654,145.157745 
	C839.981140,147.267868 855.231873,148.096390 869.262573,155.671036 
	C878.219788,160.506760 885.909302,166.274277 893.092468,173.349472 
	C900.205627,180.355850 905.219238,188.304184 909.597717,197.235306 
	C914.931274,208.114624 917.841675,219.383636 919.752991,231.599579 
	C920.033203,232.019424 920.268005,232.213882 920.268005,232.213882 
	C920.703918,246.719131 921.139832,261.224365 921.595276,276.378937 
	C919.202820,276.562836 916.985718,276.880890 914.768555,276.881836 
	C873.280396,276.899323 831.792236,276.879211 790.304077,276.866791 
	C788.804504,276.866364 787.304810,276.852386 785.805359,276.864441 
	C778.899536,276.919952 778.741394,277.128113 780.923096,283.660126 
	C780.961121,284.058838 781.002930,284.005493 781.002930,284.005493 
	C782.610352,288.874176 783.541870,294.122345 786.005249,298.510529 
	C788.761719,303.420868 792.404358,308.097534 796.549194,311.910889 
	C805.774414,320.398285 816.729370,325.954010 829.565552,324.799713 
	C842.795959,323.609985 854.887146,319.322266 862.451599,307.094025 
	C865.815552,301.656128 870.910522,300.103394 877.479248,300.937805 
	C877.986389,300.970398 878.115784,301.097534 878.115784,301.097534 
M866.041931,228.005356 
	C866.041931,228.005356 866.017029,228.002151 865.927490,227.395798 
	C864.716553,223.190796 864.049500,218.725052 862.184021,214.833878 
	C858.041687,206.193497 851.064697,199.918732 842.883606,195.246964 
	C839.329773,193.217590 835.009644,191.610016 830.994934,191.509186 
	C823.782593,191.327988 816.167114,189.726944 809.434143,193.925308 
	C804.360229,197.089157 798.753967,199.841339 794.672913,204.031525 
	C790.554688,208.259811 787.514404,213.793716 784.955872,219.206558 
	C782.808105,223.750229 781.869080,228.908234 780.823425,233.884293 
	C780.663269,234.646439 782.809875,236.781235 783.898926,236.788040 
	C810.703552,236.955292 837.509644,236.965042 864.314880,236.863998 
	C867.540649,236.851852 868.262390,235.095947 866.497620,232.172180 
	C865.839050,231.081085 866.125793,229.419418 866.041931,228.005356 
M726.609985,283.053864 
	C726.609985,283.053864 726.531006,283.089783 726.609985,283.053864 
z"/>
<path fill="#11213A" opacity="1.000000" stroke="none" 
	d="
M958.246826,197.733932 
	C961.381775,192.517288 964.320435,187.167557 967.731689,182.138351 
	C969.524475,179.495270 972.383972,177.597519 974.347107,175.044342 
	C981.396729,165.876144 991.128845,160.529449 1001.634888,155.316681 
	C1002.024292,154.959488 1002.317932,154.658508 1002.317932,154.658508 
	C1007.135742,153.097183 1011.884338,151.257507 1016.787354,150.039017 
	C1024.358398,148.157501 1031.978638,145.809280 1039.683350,145.321320 
	C1047.020142,144.856674 1054.544434,146.182404 1061.893311,147.321304 
	C1077.406982,149.725586 1091.376709,155.604111 1104.197021,165.016632 
	C1113.717896,172.006790 1120.912842,180.771820 1126.452881,190.649841 
	C1131.272705,199.243576 1134.008789,209.011169 1137.570190,218.296646 
	C1137.889893,219.130280 1137.508423,220.232773 1137.738281,221.612473 
	C1138.023926,222.014542 1138.315674,222.307312 1138.315674,222.307312 
	C1139.433105,228.227783 1140.549805,234.148407 1141.669312,240.068466 
	C1141.761597,240.556763 1141.942871,241.038635 1141.963379,241.528488 
	C1142.278931,249.076050 1142.830444,256.626740 1142.763062,264.171631 
	C1142.731201,267.743286 1141.677368,271.351929 1140.703857,274.836884 
	C1140.458008,275.716492 1138.813232,276.521667 1137.683838,276.761963 
	C1136.085571,277.102051 1134.369019,276.904907 1132.703003,276.904602 
	C1091.207886,276.896759 1049.712769,276.880951 1008.217651,276.876617 
	C1000.919006,276.875854 1000.141479,277.359955 1001.094238,284.485199 
	C1001.626160,288.463013 1003.366394,292.392303 1005.146057,296.060150 
	C1007.141907,300.173431 1009.572571,304.125366 1012.214417,307.864594 
	C1016.839233,314.410492 1023.667908,318.300232 1030.843994,321.165192 
	C1035.802368,323.144775 1041.367554,324.882629 1046.585449,324.687866 
	C1060.690430,324.161407 1073.820435,320.795532 1081.970581,307.438110 
	C1085.067749,302.362000 1089.669434,300.168610 1095.908691,301.022522 
	C1104.855835,302.246979 1113.873779,302.971832 1122.871338,303.802032 
	C1127.867554,304.263000 1132.883911,304.504669 1138.471436,304.884644 
	C1136.825562,313.906769 1134.723022,321.869385 1129.963623,328.760773 
	C1125.355103,335.433746 1121.062500,342.690338 1115.101440,347.960449 
	C1109.223511,353.156921 1103.293335,359.219482 1094.819214,360.763092 
	C1093.550659,360.994171 1092.345337,361.756073 1091.194458,362.418060 
	C1083.797363,366.673187 1075.830811,368.675659 1067.325317,369.283600 
	C1060.355347,369.781769 1053.290649,372.420746 1046.533813,371.680878 
	C1034.214355,370.331879 1021.923645,367.804688 1009.947449,364.562805 
	C1002.133911,362.447784 994.431885,358.955414 987.539246,354.690979 
	C981.339478,350.855164 975.819092,345.568665 970.904358,340.107300 
	C965.980652,334.635925 962.016602,328.261078 957.973145,322.059692 
	C956.616821,319.979523 956.309326,317.215424 955.262695,314.387543 
	C955.002991,314.011139 954.854309,313.888519 954.854309,313.888519 
	C953.555359,311.172180 952.256348,308.455841 951.008728,305.347443 
	C951.060059,304.955383 951.015198,305.028168 951.015198,305.028168 
	C950.701355,304.239624 950.387451,303.451050 950.097656,302.314209 
	C950.121643,301.965881 950.002380,302.002777 950.002380,302.002777 
	C948.543640,295.007751 946.834534,288.052429 945.716980,281.003326 
	C945.007874,276.530731 945.155579,271.919586 944.960999,267.368774 
	C944.685608,260.929810 944.299866,254.489532 944.284729,248.049057 
	C944.280090,246.070114 945.659058,244.119308 945.849365,242.103241 
	C946.838013,231.628754 949.087280,221.440155 952.544250,211.525574 
	C954.040039,207.235855 955.857422,203.058258 957.744385,198.427917 
	C957.959961,198.026108 958.246826,197.733932 958.246826,197.733932 
M1077.915894,208.697495 
	C1074.606079,205.381989 1071.373169,201.985001 1067.969360,198.768951 
	C1062.018921,193.146637 1054.679199,191.128372 1046.702637,191.024902 
	C1044.235962,190.992889 1041.690186,190.872879 1039.313599,191.396698 
	C1034.400635,192.479538 1028.894287,192.922852 1024.883057,195.543823 
	C1019.407959,199.121292 1014.455139,203.991211 1010.460449,209.211517 
	C1005.853088,215.232422 1001.203247,221.511826 1001.066284,229.918854 
	C1000.964050,236.198318 1001.109009,236.947998 1007.324341,236.958420 
	C1032.111084,236.999969 1056.897949,237.004318 1081.684692,237.002182 
	C1083.007446,237.002075 1084.402344,237.037842 1085.626587,236.637802 
	C1086.393555,236.387238 1087.520630,235.251480 1087.428589,234.684784 
	C1086.865356,231.219345 1086.425171,227.633118 1085.137329,224.409363 
	C1083.091797,219.289001 1080.413086,214.421585 1077.915894,208.697495 
M948.527893,292.557281 
	C948.527893,292.557281 948.512207,292.504028 948.527893,292.557281 
z"/>
<path fill="#11223A" opacity="1.000000" stroke="none" 
	d="
M1171.013428,223.021545 
	C1170.697632,222.229889 1170.381836,221.438232 1170.077148,220.303162 
	C1170.088135,219.959763 1170.011597,220.017853 1170.011597,220.017853 
	C1169.004517,217.249329 1167.997437,214.480774 1167.041992,211.336517 
	C1167.093506,210.960815 1167.011841,211.018524 1167.011719,211.018539 
	C1164.909668,203.878296 1163.575928,196.362900 1160.356323,189.768204 
	C1158.912231,186.810226 1159.005249,183.912903 1157.864868,181.179977 
	C1156.734375,178.471481 1155.205688,175.917099 1154.219971,173.163239 
	C1152.786743,169.159256 1151.647095,165.047791 1150.453491,160.961380 
	C1149.652222,158.218475 1148.973877,155.439651 1148.607666,152.351974 
	C1167.971924,152.031433 1186.968994,152.035782 1205.966064,152.040131 
	C1208.411377,159.744583 1210.784790,167.472916 1213.333740,175.142944 
	C1214.520386,178.713821 1216.145996,182.137405 1217.378540,185.694977 
	C1218.007690,187.510925 1218.253174,189.467438 1218.588623,191.375092 
	C1218.870361,192.977585 1218.784546,194.683151 1219.287598,196.201904 
	C1221.784058,203.738937 1224.674438,211.153503 1226.952393,218.753159 
	C1230.635986,231.042404 1233.808716,243.484589 1237.474854,255.779373 
	C1239.544922,262.721619 1242.383545,269.433990 1244.474976,276.370758 
	C1246.043335,281.573242 1246.862671,286.997620 1248.259521,292.258362 
	C1248.627197,293.643280 1249.900635,294.787689 1250.758301,296.042480 
	C1251.238037,294.760010 1251.732544,293.482849 1252.194702,292.194031 
	C1253.308594,289.087402 1254.533691,286.013611 1255.489502,282.858582 
	C1259.152832,270.765594 1262.680054,258.631378 1266.348389,246.539886 
	C1270.563232,232.646576 1274.869507,218.780991 1279.145264,204.906174 
	C1280.519897,200.445602 1281.991455,196.013763 1283.299927,191.534119 
	C1286.817993,179.489304 1290.272095,167.425827 1294.070312,155.037323 
	C1294.612183,154.508835 1294.786011,154.275940 1294.910400,154.006226 
	C1295.168945,153.489105 1295.427490,152.971970 1296.304321,152.223557 
	C1314.602661,151.992279 1332.282715,151.992279 1349.766357,151.992279 
	C1350.294922,154.160645 1350.635010,155.555984 1350.975098,156.951309 
	C1349.565674,160.382874 1348.064331,163.780151 1346.768311,167.254044 
	C1344.818115,172.481644 1342.958130,177.744614 1341.155151,183.025085 
	C1337.644531,193.307831 1334.182007,203.607162 1330.732666,213.910706 
	C1327.426147,223.787292 1324.170532,233.680939 1320.876587,243.561676 
	C1316.561523,256.505066 1312.094238,269.399536 1307.941528,282.394623 
	C1303.044067,297.719513 1298.560059,313.177063 1293.614990,328.486023 
	C1290.249268,338.905640 1286.322754,349.142700 1282.802246,359.514160 
	C1281.233398,364.135956 1278.844604,366.291321 1273.415649,366.130554 
	C1257.930786,365.671906 1242.420898,365.764313 1226.928223,366.046661 
	C1222.269165,366.131622 1220.004761,364.480377 1218.538818,360.228485 
	C1216.701050,354.897339 1214.255005,349.775848 1212.061768,344.257690 
	C1212.052124,343.951447 1212.008301,344.020325 1212.008301,344.020325 
	C1209.792480,336.670319 1207.755737,329.259460 1205.288940,321.994690 
	C1203.956787,318.071838 1201.638550,314.489502 1200.226318,310.586609 
	C1198.894043,306.904724 1198.334595,302.949921 1197.132080,299.212738 
	C1195.443726,293.965912 1193.389038,288.837646 1191.669556,283.600037 
	C1191.005981,281.578583 1191.078369,279.311615 1190.386719,277.304230 
	C1188.578003,272.055023 1186.476685,266.907379 1184.608154,261.677673 
	C1183.812622,259.451111 1183.307129,257.120941 1182.344971,254.419189 
	C1182.020020,254.000488 1181.671753,253.704666 1181.671875,253.704651 
	C1180.469727,250.328354 1179.267578,246.952072 1178.059204,243.264984 
	C1178.052856,242.954178 1178.013062,243.027405 1178.013062,243.027405 
	C1175.675415,236.567459 1173.337891,230.107513 1171.043945,223.303467 
	C1171.087524,222.959366 1171.013428,223.021530 1171.013428,223.021545 
z"/>
<path fill="#183968" opacity="1.000000" stroke="none" 
	d="
M340.026520,374.953918 
	C344.315399,389.084137 348.604279,403.214325 352.514832,417.715393 
	C350.809784,417.985077 349.483063,417.883972 348.002350,417.493835 
	C346.027985,415.783081 344.313293,414.194305 342.371155,412.964905 
	C317.686920,397.339355 293.007141,381.706085 268.240112,366.212372 
	C260.239044,361.207123 251.987015,356.603027 243.887787,351.388916 
	C243.995605,344.339966 244.031647,337.716919 244.142471,331.095154 
	C244.358398,318.193542 244.834747,305.292175 244.803635,292.391632 
	C244.760834,274.632599 244.138351,256.874359 244.149597,239.115997 
	C244.161713,219.993698 244.812180,200.871796 244.824707,181.749496 
	C244.835999,164.501648 244.135208,147.253174 244.159866,130.005554 
	C244.189346,109.396690 244.702927,88.788895 244.901535,68.179619 
	C244.952576,62.882881 244.779221,57.569862 244.394440,52.287231 
	C244.049774,47.555058 243.272171,42.854416 242.736511,37.852226 
	C243.048859,37.062359 243.310257,36.560131 243.935211,36.126915 
	C245.919571,40.287071 247.921692,44.271820 249.097656,48.487053 
	C255.484055,71.379272 261.616486,94.342178 267.931366,117.254562 
	C276.547089,148.515030 285.249725,179.751526 293.912445,210.999054 
	C302.263367,241.122009 310.593109,271.250854 318.966705,301.367523 
	C323.689484,318.353516 328.488281,335.318329 333.237610,352.296997 
	C334.144226,355.538055 334.979553,358.799042 335.847748,362.050842 
	C335.847107,362.226227 335.846497,362.401642 335.903076,363.240997 
	C337.315704,367.587952 338.671112,371.270935 340.026520,374.953918 
z"/>
<path fill="#2C509E" opacity="1.000000" stroke="none" 
	d="
M242.685562,38.139862 
	C243.272171,42.854416 244.049774,47.555058 244.394440,52.287231 
	C244.779221,57.569862 244.952576,62.882881 244.901535,68.179619 
	C244.702927,88.788895 244.189346,109.396690 244.159866,130.005554 
	C244.135208,147.253174 244.835999,164.501648 244.824707,181.749496 
	C244.812180,200.871796 244.161713,219.993698 244.149597,239.115997 
	C244.138351,256.874359 244.760834,274.632599 244.803635,292.391632 
	C244.834747,305.292175 244.358398,318.193542 244.142471,331.095154 
	C244.031647,337.716919 243.995605,344.339966 243.602173,351.576080 
	C222.343445,365.390472 201.393417,378.567657 180.478470,391.800354 
	C166.865570,400.413116 153.303741,409.106628 139.441956,417.736176 
	C138.461121,417.166382 137.757355,416.624390 137.053589,416.082397 
	C139.565445,408.067383 142.204269,400.089417 144.557709,392.028137 
	C147.648819,381.440155 150.535034,370.791931 153.438782,360.150360 
	C153.661224,359.335114 153.324692,358.367371 153.710358,356.956024 
	C156.336777,349.113342 158.601974,341.813232 160.649399,334.452576 
	C183.889755,250.901459 207.138550,167.352631 230.269562,83.771210 
	C233.904587,70.636406 236.965118,57.342613 240.263672,44.111618 
	C240.236038,44.100903 240.190094,44.138329 240.432953,43.902554 
	C240.866592,42.791447 241.057373,41.916115 241.413635,40.817738 
	C241.947937,39.776417 242.316742,38.958138 242.685562,38.139862 
z"/>
<path fill="#10213B" opacity="1.000000" stroke="none" 
	d="
M335.923889,361.665649 
	C334.979553,358.799042 334.144226,355.538055 333.237610,352.296997 
	C328.488281,335.318329 323.689484,318.353516 318.966705,301.367523 
	C310.593109,271.250854 302.263367,241.122009 293.912445,210.999054 
	C285.249725,179.751526 276.547089,148.515030 267.931366,117.254562 
	C261.616486,94.342178 255.484055,71.379272 249.097656,48.487053 
	C247.921692,44.271820 245.919571,40.287071 243.937546,35.716805 
	C243.730972,34.155746 243.885635,33.073814 244.040314,31.991888 
	C244.881287,32.697647 246.065704,33.235500 246.506409,34.136944 
	C248.996857,39.230980 251.234390,44.448261 253.702118,49.553932 
	C256.312683,54.955128 259.143311,60.249763 261.769440,65.643723 
	C264.365356,70.975708 266.822052,76.375450 269.347107,81.742035 
	C271.360535,86.021233 273.304291,90.335594 275.420532,94.563515 
	C280.452393,104.616486 285.678894,114.573296 290.619263,124.670479 
	C295.687225,135.028366 300.435516,145.542480 305.481262,155.911575 
	C307.043274,159.121552 309.120605,162.080750 310.973145,165.591003 
	C310.984283,166.027237 310.787689,166.227844 310.734497,166.258240 
	C310.681274,166.288635 310.690094,166.592041 310.849121,166.779617 
	C311.008118,166.967194 311.328674,167.340149 311.328674,167.340149 
	C317.350708,179.138474 323.418243,190.913879 329.370911,202.747101 
	C331.554321,207.087494 333.366913,211.613663 335.524750,215.967834 
	C338.563843,222.100388 341.926270,228.075897 344.865692,234.254028 
	C350.551849,246.205368 356.043518,258.249298 361.607239,270.258820 
	C365.147339,277.900238 368.523712,285.621918 372.245331,293.173615 
	C375.979736,300.751251 380.249908,308.066833 383.923218,315.672089 
	C388.134369,324.391052 391.889435,333.329163 395.963837,342.115875 
	C397.442932,345.305664 399.344421,348.297485 400.902893,351.453827 
	C401.476257,352.615021 401.616241,353.990234 402.134491,355.951355 
	C379.696686,355.951355 357.982574,355.951355 336.000000,355.951355 
	C336.000000,358.089142 336.000000,359.684784 335.923889,361.665649 
z"/>
<path fill="#8AB5DF" opacity="1.000000" stroke="none" 
	d="
M240.291306,44.122337 
	C236.965118,57.342613 233.904587,70.636406 230.269562,83.771210 
	C207.138550,167.352631 183.889755,250.901459 160.649399,334.452576 
	C158.601974,341.813232 156.336777,349.113342 153.967270,356.758057 
	C152.181137,356.704315 150.601593,356.017731 149.019562,356.011963 
	C129.881561,355.942078 110.743210,355.972717 91.604942,355.977081 
	C89.819168,355.977478 88.033394,355.977142 85.195068,355.977142 
	C102.329620,321.373657 119.097824,287.509979 136.312592,253.142349 
	C137.170731,251.368286 137.582321,250.098206 137.993927,248.828125 
	C137.993927,248.828125 138.024857,248.469055 138.404633,248.169952 
	C140.173645,244.882080 141.562881,241.893326 142.952087,238.904556 
	C142.952087,238.904556 142.948288,238.974991 143.255768,238.839478 
	C144.076263,236.978561 144.589264,235.253159 145.102249,233.527771 
	C145.102249,233.527771 145.187943,233.220795 145.693115,233.201569 
	C147.129471,231.076355 148.060654,228.970367 148.991821,226.864395 
	C148.991821,226.864395 149.034012,226.458420 149.418365,226.139160 
	C151.197937,222.480499 152.593170,219.141098 153.988403,215.801712 
	C153.988403,215.801712 154.009323,215.435669 154.361938,215.101501 
	C155.131134,213.817749 155.547684,212.868149 155.964233,211.918549 
	C155.964249,211.918549 155.960907,211.985962 156.251785,211.860504 
	C164.292389,201.190475 169.162827,189.291443 172.939865,176.878067 
	C172.939865,176.878067 172.933334,176.962982 173.219788,176.828949 
	C174.339233,174.754517 175.172226,172.814117 176.005219,170.873718 
	C176.005219,170.873718 176.045563,170.472610 176.409576,170.128326 
	C180.414627,163.045792 184.145782,156.353653 187.632767,149.536621 
	C188.495117,147.850754 188.564713,145.759384 188.998718,143.854416 
	C188.998718,143.854416 189.041992,143.443314 189.260529,143.067444 
	C189.673615,142.439514 189.842499,142.171280 189.985733,141.886917 
	C189.985733,141.886917 189.972076,141.979874 190.254379,141.853912 
	C193.024918,136.448532 195.513168,131.169128 198.001419,125.889740 
	C198.001419,125.889740 198.061890,125.469284 198.428406,125.115433 
	C205.059982,114.708199 210.934326,104.468529 213.992416,92.886131 
	C213.992416,92.886131 214.047989,92.463539 214.412537,92.104950 
	C215.516266,90.128639 216.255432,88.510925 216.994598,86.893204 
	C216.994598,86.893204 217.059418,86.468704 217.424576,86.114059 
	C221.468704,79.161339 225.218872,72.601707 228.807404,65.954819 
	C232.713593,58.719551 236.469757,51.403294 240.291306,44.122337 
z"/>
<path fill="#47505B" opacity="1.000000" stroke="none" 
	d="
M496.963745,365.920746 
	C496.640076,364.038208 496.034180,362.155823 496.033264,360.273102 
	C495.986359,266.419830 495.988464,172.566528 496.013885,78.713234 
	C496.014313,77.095306 496.364014,75.477478 496.812683,74.375473 
	C497.050323,78.219002 497.005280,81.546669 497.004700,84.874336 
	C496.988312,178.556473 496.976410,272.238617 496.963745,365.920746 
z"/>
<path fill="#051225" opacity="1.000000" stroke="none" 
	d="
M497.240204,365.915527 
	C496.976410,272.238617 496.988312,178.556473 497.004700,84.874336 
	C497.005280,81.546669 497.050323,78.219002 497.126953,74.422157 
	C497.179291,73.952980 497.608368,73.993790 497.821838,74.025589 
	C498.036713,171.023285 498.038086,267.989166 498.053650,365.410034 
	C497.884094,365.880035 497.700378,365.895142 497.240204,365.915527 
z"/>
<path fill="#000418" opacity="1.000000" stroke="none" 
	d="
M137.026764,416.465118 
	C137.757355,416.624390 138.461121,417.166382 139.930023,417.796417 
	C141.527328,417.921661 142.359497,417.991302 143.191650,417.991425 
	C210.183975,418.002441 277.176300,418.009308 344.168610,418.004272 
	C345.497833,418.004181 346.827087,417.859894 348.156311,417.782867 
	C349.483063,417.883972 350.809784,417.985077 352.532562,418.096558 
	C352.917114,418.299927 352.905609,418.492920 352.408264,418.905762 
	C322.444427,419.080322 292.966400,418.990692 263.488342,419.000366 
	C221.353271,419.014221 179.218246,419.100677 137.083191,419.156128 
	C137.055435,418.386688 137.027695,417.617279 137.026764,416.465118 
z"/>
<path fill="#797F8B" opacity="1.000000" stroke="none" 
	d="
M137.364899,419.462891 
	C179.218246,419.100677 221.353271,419.014221 263.488342,419.000366 
	C292.966400,418.990692 322.444427,419.080322 352.375366,419.193909 
	C351.382843,419.495483 349.937561,419.931976 348.492004,419.932739 
	C278.870850,419.970459 209.249695,419.971130 139.628525,419.966431 
	C138.967880,419.966400 138.307236,419.838074 137.364899,419.462891 
z"/>
<path fill="#9EB9D1" opacity="1.000000" stroke="none" 
	d="
M240.263672,44.111622 
	C236.469757,51.403294 232.713593,58.719551 228.807404,65.954819 
	C225.218872,72.601707 221.468704,79.161339 217.494690,85.911110 
	C217.672287,84.586357 217.963013,83.019447 218.645325,81.647232 
	C226.844604,65.156975 235.101852,48.695560 243.692154,32.109253 
	C243.885635,33.073814 243.730972,34.155746 243.573975,35.647789 
	C243.310257,36.560131 243.048859,37.062359 242.736511,37.852226 
	C242.316742,38.958138 241.947937,39.776417 241.182022,41.067657 
	C240.586655,42.406521 240.388367,43.272427 240.190094,44.138329 
	C240.190094,44.138329 240.236038,44.100903 240.263672,44.111622 
z"/>
<path fill="#9DA5A5" opacity="1.000000" stroke="none" 
	d="
M555.016846,263.005371 
	C555.190979,262.977966 555.365051,262.950562 555.802002,262.951355 
	C556.040039,295.508606 556.017334,328.037659 555.984314,360.566742 
	C555.982605,362.224274 555.892639,363.881744 555.427734,365.281891 
	C555.013428,331.018158 555.015137,297.011749 555.016846,263.005371 
z"/>
<path fill="#000210" opacity="1.000000" stroke="none" 
	d="
M554.796265,263.355103 
	C555.015137,297.011749 555.013428,331.018158 555.048584,365.488342 
	C554.887695,365.950714 554.689941,365.949310 554.195068,365.938263 
	C553.929871,333.989288 553.950745,302.049927 554.018311,270.110657 
	C554.022827,267.975006 554.381653,265.840118 554.796265,263.355103 
z"/>
<path fill="#9EB9D1" opacity="1.000000" stroke="none" 
	d="
M172.595581,177.013931 
	C169.162827,189.291443 164.292389,201.190475 156.218643,211.854126 
	C160.374039,202.340988 164.846069,192.705307 169.338913,183.079361 
	C170.270081,181.084335 171.278488,179.125381 172.595581,177.013931 
z"/>
<path fill="#9EB9D1" opacity="1.000000" stroke="none" 
	d="
M213.649094,93.017303 
	C210.934326,104.468529 205.059982,114.708199 198.500229,124.915558 
	C201.161392,118.507057 204.046219,111.911324 207.098755,105.394142 
	C209.038910,101.251907 211.228195,97.226357 213.649094,93.017303 
z"/>
<path fill="#000418" opacity="1.000000" stroke="none" 
	d="
M1351.115234,156.641785 
	C1350.635010,155.555984 1350.294922,154.160645 1349.766357,151.992279 
	C1332.282715,151.992279 1314.602661,151.992279 1296.452393,151.975037 
	C1295.982300,151.957794 1295.971069,151.598297 1296.436890,151.356628 
	C1313.818481,151.090591 1330.734497,151.017792 1347.649292,151.128189 
	C1349.098267,151.137650 1350.539307,152.364304 1351.984009,153.025543 
	C1351.741089,154.127777 1351.498291,155.230011 1351.115234,156.641785 
z"/>
<path fill="#47505B" opacity="1.000000" stroke="none" 
	d="
M1147.989868,151.139160 
	C1148.893677,150.747726 1149.796631,150.017319 1150.701416,150.014969 
	C1168.582031,149.968430 1186.462646,150.000977 1204.343384,150.048691 
	C1204.964722,150.050354 1205.585327,150.374207 1205.669800,150.796143 
	C1186.085449,151.075989 1167.037720,151.107590 1147.989868,151.139160 
z"/>
<path fill="#47505B" opacity="1.000000" stroke="none" 
	d="
M1352.319092,152.842621 
	C1350.539307,152.364304 1349.098267,151.137650 1347.649292,151.128189 
	C1330.734497,151.017792 1313.818481,151.090591 1296.435303,151.176788 
	C1296.914795,150.814041 1297.859985,150.023422 1298.808594,150.019318 
	C1315.448242,149.947327 1332.088379,149.942581 1348.728027,150.018646 
	C1350.420898,150.026382 1353.189209,149.068893 1352.319092,152.842621 
z"/>
<path fill="#000418" opacity="1.000000" stroke="none" 
	d="
M1148.000732,151.367691 
	C1167.037720,151.107590 1186.085449,151.075989 1205.605835,151.110443 
	C1206.078369,151.176498 1206.022827,151.608078 1205.994385,151.824097 
	C1186.968994,152.035782 1167.971924,152.031433 1148.511230,152.039673 
	C1148.047729,152.052277 1148.011475,151.596191 1148.000732,151.367691 
z"/>
<path fill="#9EB9D1" opacity="1.000000" stroke="none" 
	d="
M188.644516,143.989716 
	C188.564713,145.759384 188.495117,147.850754 187.632767,149.536621 
	C184.145782,156.353653 180.414627,163.045792 176.476593,169.938232 
	C177.185135,167.480820 178.021713,164.788025 179.229813,162.273743 
	C182.157898,156.179916 185.258957,150.169205 188.644516,143.989716 
z"/>
<path fill="#47505B" opacity="1.000000" stroke="none" 
	d="
M556.512329,263.027069 
	C556.022827,262.876373 555.998169,262.695770 556.456299,262.262634 
	C570.301880,262.129333 583.664856,262.248535 597.027771,262.367737 
	C596.909851,262.654358 596.837830,262.952087 596.802979,263.490936 
	C591.674683,263.465332 586.557251,263.059998 581.435242,262.988373 
	C573.284241,262.874390 565.130005,262.982819 556.512329,263.027069 
z"/>
<path fill="#9EB9D1" opacity="1.000000" stroke="none" 
	d="
M197.654602,126.024330 
	C195.513168,131.169128 193.024918,136.448532 190.207947,141.846863 
	C192.355392,136.696823 194.831604,131.427872 197.654602,126.024330 
z"/>
<path fill="#9EB9D1" opacity="1.000000" stroke="none" 
	d="
M153.642761,215.947235 
	C152.593170,219.141098 151.197937,222.480499 149.481567,225.945099 
	C150.539322,222.744461 151.918228,219.418610 153.642761,215.947235 
z"/>
<path fill="#9EB9D1" opacity="1.000000" stroke="none" 
	d="
M142.604340,239.034927 
	C141.562881,241.893326 140.173645,244.882080 138.463135,247.999496 
	C139.513412,245.140533 140.884979,242.152908 142.604340,239.034927 
z"/>
<path fill="#10213B" opacity="1.000000" stroke="none" 
	d="
M339.994354,374.570709 
	C338.671112,371.270935 337.315704,367.587952 335.934937,363.502167 
	C337.260437,366.795410 338.611328,370.491455 339.994354,374.570709 
z"/>
<path fill="#9EB9D1" opacity="1.000000" stroke="none" 
	d="
M148.658279,226.994232 
	C148.060654,228.970367 147.129471,231.076355 145.845810,233.155945 
	C146.437134,231.127747 147.380936,229.125900 148.658279,226.994232 
z"/>
<path fill="#9EB9D1" opacity="1.000000" stroke="none" 
	d="
M175.665100,171.007507 
	C175.172226,172.814117 174.339233,174.754517 173.177368,176.825211 
	C173.673996,175.017441 174.499481,173.079361 175.665100,171.007507 
z"/>
<path fill="#9EB9D1" opacity="1.000000" stroke="none" 
	d="
M144.804626,233.703400 
	C144.589264,235.253159 144.076263,236.978561 143.220627,238.836563 
	C143.420990,237.272461 143.963989,235.575760 144.804626,233.703400 
z"/>
<path fill="#9EB9D1" opacity="1.000000" stroke="none" 
	d="
M216.659363,87.018723 
	C216.255432,88.510925 215.516266,90.128639 214.476837,91.901764 
	C214.892426,90.419533 215.608276,88.781891 216.659363,87.018723 
z"/>
<path fill="#9EB9D1" opacity="1.000000" stroke="none" 
	d="
M137.664307,248.964737 
	C137.582321,250.098206 137.170731,251.368286 136.468216,252.812866 
	C136.563095,251.692032 136.948898,250.396683 137.664307,248.964737 
z"/>
<path fill="#9EB9D1" opacity="1.000000" stroke="none" 
	d="
M155.637512,212.018311 
	C155.547684,212.868149 155.131134,213.817749 154.433807,214.932861 
	C154.538971,214.104950 154.924896,213.111511 155.637512,212.018311 
z"/>
<path fill="#11213A" opacity="1.000000" stroke="none" 
	d="
M919.915771,231.922211 
	C920.001343,231.432800 920.204346,231.040588 920.407349,230.648407 
	C920.467285,231.049164 920.527222,231.449905 920.427612,232.032257 
	C920.268005,232.213882 920.033203,232.019424 919.915771,231.922211 
z"/>
<path fill="#11223A" opacity="1.000000" stroke="none" 
	d="
M1182.193481,254.149292 
	C1181.999390,254.669388 1181.631836,255.040665 1181.264282,255.411942 
	C1181.242676,254.958817 1181.221191,254.505692 1181.435669,253.878601 
	C1181.671753,253.704666 1182.020020,254.000488 1182.193481,254.149292 
z"/>
<path fill="#11223A" opacity="1.000000" stroke="none" 
	d="
M641.157837,355.125122 
	C640.981812,355.620697 640.654846,355.991547 640.327881,356.362427 
	C640.316528,355.945282 640.305176,355.528107 640.500549,354.929749 
	C640.707214,354.748505 641.006958,355.000427 641.157837,355.125122 
z"/>
<path fill="#11213A" opacity="1.000000" stroke="none" 
	d="
M1359.122070,281.102020 
	C1358.969116,281.572357 1358.660522,281.911346 1358.351807,282.250336 
	C1358.331299,281.858612 1358.310913,281.466919 1358.472290,280.891998 
	C1358.654175,280.708801 1358.966431,280.970673 1359.122070,281.102020 
z"/>
<path fill="#11213A" opacity="1.000000" stroke="none" 
	d="
M955.076782,314.073120 
	C954.907288,314.414337 954.663879,314.693542 954.420532,314.972748 
	C954.454529,314.695557 954.488464,314.418396 954.688354,314.014862 
	C954.854309,313.888519 955.002991,314.011139 955.076782,314.073120 
z"/>
<path fill="#10213B" opacity="1.000000" stroke="none" 
	d="
M311.083008,165.927338 
	C311.347137,166.218201 311.512573,166.608978 311.503357,167.169952 
	C311.328674,167.340149 311.008118,166.967194 310.866821,166.687393 
	C310.725494,166.407593 310.787689,166.227844 310.787689,166.227844 
	C310.787689,166.227844 310.984283,166.027237 311.083008,165.927338 
z"/>
<path fill="#000418" opacity="1.000000" stroke="none" 
	d="
M1294.749512,154.150558 
	C1294.786011,154.275940 1294.612183,154.508835 1294.208374,154.828064 
	C1294.196289,154.716827 1294.383423,154.498047 1294.749512,154.150558 
z"/>
<path fill="#11213A" opacity="1.000000" stroke="none" 
	d="
M1550.155273,314.860046 
	C1550.474731,314.938538 1550.670532,315.190582 1550.781372,315.475586 
	C1550.818237,315.570465 1550.637207,315.750061 1550.339111,316.000031 
	C1550.122314,316.109192 1549.965210,315.957092 1549.849854,315.788300 
	C1549.734375,315.619507 1549.687378,315.421173 1549.687378,315.421173 
	C1549.687378,315.421173 1549.998535,315.046448 1550.155273,314.860046 
z"/>
<path fill="#11213A" opacity="1.000000" stroke="none" 
	d="
M1001.875793,155.108292 
	C1001.829468,154.961594 1001.931702,154.666092 1002.175903,154.514557 
	C1002.317932,154.658508 1002.024292,154.959488 1001.875793,155.108292 
z"/>
<path fill="#11213A" opacity="1.000000" stroke="none" 
	d="
M1511.116821,359.898560 
	C1511.166870,360.042816 1511.071533,360.332397 1510.829590,360.479248 
	C1510.682739,360.336517 1510.971436,360.043884 1511.116821,359.898560 
z"/>
<path fill="#11213A" opacity="1.000000" stroke="none" 
	d="
M781.868530,155.118561 
	C781.821716,154.959091 781.925354,154.649887 782.173096,154.503448 
	C782.317139,154.666245 782.019104,154.968826 781.868530,155.118561 
z"/>
<path fill="#11213A" opacity="1.000000" stroke="none" 
	d="
M1491.838501,150.830383 
	C1492.062012,150.599075 1492.475464,150.524673 1492.997314,150.666107 
	C1493.105591,150.881943 1492.960083,151.029129 1492.789551,151.140564 
	C1492.619019,151.252014 1492.410034,151.299301 1492.410034,151.299301 
	C1492.410034,151.299301 1492.028564,150.987305 1491.838501,150.830383 
z"/>
<path fill="#11213A" opacity="1.000000" stroke="none" 
	d="
M877.923584,300.904968 
	C878.014038,300.874969 878.167297,300.910400 878.218201,301.021667 
	C878.115784,301.097534 877.986389,300.970398 877.923584,300.904968 
z"/>
<path fill="#9EB9D1" opacity="1.000000" stroke="none" 
	d="
M189.707245,141.966156 
	C189.842499,142.171280 189.673615,142.439514 189.320587,142.869690 
	C189.250977,142.713654 189.339874,142.379532 189.707245,141.966156 
z"/>
<path fill="#11213A" opacity="1.000000" stroke="none" 
	d="
M957.815308,198.171021 
	C957.767761,198.020737 957.864807,197.725555 958.104370,197.582153 
	C958.246826,197.733932 957.959961,198.026108 957.815308,198.171021 
z"/>
<path fill="#11213A" opacity="1.000000" stroke="none" 
	d="
M1137.878906,221.867340 
	C1138.042969,221.826187 1138.352173,221.932236 1138.488525,222.172806 
	C1138.315674,222.307312 1138.023926,222.014542 1137.878906,221.867340 
z"/>
<path fill="#000000" opacity="1.000000" stroke="none" 
	d="
M554.712830,195.891541 
	C554.755554,195.691788 554.798218,195.492050 555.304810,194.826874 
	C555.824585,185.944702 555.880249,177.527969 555.935730,168.806061 
	C555.935242,168.297424 555.934875,168.093964 555.958618,167.428650 
	C555.952332,153.367615 555.922058,139.768417 555.891785,126.169228 
	C557.807312,125.794373 559.720703,125.108337 561.638794,125.094658 
	C575.115234,124.998482 588.601196,124.766304 602.065186,125.185684 
	C606.875671,125.335526 611.617371,127.947746 616.419617,128.048492 
	C623.329651,128.193481 626.380859,134.413513 631.934570,136.570053 
	C633.655945,137.238480 634.526306,139.996353 635.889771,141.715561 
	C637.394592,143.612976 639.290527,145.253418 640.516235,147.304489 
	C641.831177,149.504990 642.968140,151.969315 643.485291,154.463165 
	C646.440247,168.713669 645.489624,182.092712 635.741577,194.095963 
	C629.258728,202.078537 621.546143,207.875305 611.357422,208.313477 
	C593.244385,209.092468 575.087158,208.842178 556.478516,208.534317 
	C555.576721,203.994644 555.144775,199.943100 554.712830,195.891541 
z"/>
<path fill="#000210" opacity="1.000000" stroke="none" 
	d="
M555.934509,167.890503 
	C555.934875,168.093964 555.935242,168.297424 555.582397,169.035843 
	C555.126160,177.736603 555.023071,185.902405 554.919983,194.068192 
	C554.610168,192.635849 554.035095,191.204315 554.030701,189.771042 
	C553.970581,170.044891 553.975098,150.318466 554.020447,130.592239 
	C554.023376,129.310059 554.488953,128.028915 554.853699,126.853447 
	C554.940857,136.585999 554.810303,146.213745 554.935913,155.838165 
	C554.988342,159.859268 555.585144,163.873276 555.934509,167.890503 
z"/>
<path fill="#797F8B" opacity="1.000000" stroke="none" 
	d="
M555.958618,167.428650 
	C555.585144,163.873276 554.988342,159.859268 554.935913,155.838165 
	C554.810303,146.213745 554.940857,136.585999 555.074951,126.504959 
	C555.181885,126.050331 555.532898,126.132507 555.712341,126.150864 
	C555.922058,139.768417 555.952332,153.367615 555.958618,167.428650 
z"/>
<path fill="#051225" opacity="1.000000" stroke="none" 
	d="
M596.694214,262.095215 
	C583.664856,262.248535 570.301880,262.129333 556.471008,261.989685 
	C557.763245,261.647583 559.521179,261.063324 561.284058,261.047760 
	C571.372314,260.958801 581.462097,260.969360 591.550659,261.041931 
	C593.155701,261.053467 594.757385,261.550262 596.694214,262.095215 
z"/>
<path fill="#000210" opacity="1.000000" stroke="none" 
	d="
M554.557800,196.272583 
	C555.144775,199.943100 555.576721,203.994644 556.011597,208.502899 
	C552.059204,205.305313 554.516663,200.811081 554.557800,196.272583 
z"/>
<path fill="#797F8B" opacity="1.000000" stroke="none" 
	d="
M554.983398,194.221436 
	C555.023071,185.902405 555.126160,177.736603 555.582642,169.341034 
	C555.880249,177.527969 555.824585,185.944702 555.392090,194.533203 
	C555.015381,194.704956 555.046875,194.374695 554.983398,194.221436 
z"/>
<path fill="#000000" opacity="1.000000" stroke="none" 
	d="
M606.004578,282.014343 
	C606.012329,282.026154 606.057739,281.954742 606.016174,281.969910 
	C605.974609,281.985077 605.996826,282.002533 606.004578,282.014343 
z"/>
<path fill="#000000" opacity="1.000000" stroke="none" 
	d="
M666.997559,272.991943 
	C666.993530,272.984528 666.959717,273.055084 666.987915,273.032349 
	C667.016113,273.009644 667.001648,272.999329 666.997559,272.991943 
z"/>
<path fill="#000000" opacity="1.000000" stroke="none" 
	d="
M660.994751,260.986633 
	C660.984680,260.973328 660.931946,261.042480 660.981445,261.031860 
	C661.030945,261.021271 661.004883,260.999908 660.994751,260.986633 
z"/>
<path fill="#000001" opacity="1.000000" stroke="none" 
	d="
M1436.086670,197.032532 
	C1447.713989,189.319611 1460.172852,189.557388 1472.402588,193.010971 
	C1477.400879,194.422440 1481.767822,198.751770 1485.891846,202.359711 
	C1489.148071,205.208252 1492.060547,208.707520 1494.261597,212.428909 
	C1496.317261,215.904449 1497.253906,220.046341 1498.625854,223.915161 
	C1498.775879,224.338028 1498.406372,224.928909 1498.515869,225.384644 
	C1501.306641,236.996445 1501.312134,236.994492 1489.149658,236.995651 
	C1466.197510,236.997833 1443.245361,237.015549 1420.293213,236.994446 
	C1413.436279,236.988144 1412.462402,235.716125 1414.275269,228.922226 
	C1416.887207,219.133774 1420.415283,209.887299 1429.084717,203.562088 
	C1431.546509,201.765991 1433.578857,199.381241 1436.086670,197.032532 
z"/>
<path fill="#000000" opacity="1.000000" stroke="none" 
	d="
M1492.463257,151.336411 
	C1492.410034,151.299301 1492.619019,151.252014 1492.716187,151.213562 
	C1492.813354,151.175110 1492.516479,151.373520 1492.463257,151.336411 
z"/>
<path fill="#000000" opacity="1.000000" stroke="none" 
	d="
M1549.649658,315.471863 
	C1549.687378,315.421173 1549.734375,315.619507 1549.771851,315.711670 
	C1549.809326,315.803833 1549.611816,315.522522 1549.649658,315.471863 
z"/>
<path fill="#000000" opacity="1.000000" stroke="none" 
	d="
M1544.999023,199.998154 
	C1544.998169,199.996307 1544.972656,200.062637 1544.987061,200.032028 
	C1545.001343,200.001419 1545.000000,200.000000 1544.999023,199.998154 
z"/>
<path fill="#000001" opacity="1.000000" stroke="none" 
	d="
M865.981506,228.017914 
	C866.125793,229.419418 865.839050,231.081085 866.497620,232.172180 
	C868.262390,235.095947 867.540649,236.851852 864.314880,236.863998 
	C837.509644,236.965042 810.703552,236.955292 783.898926,236.788040 
	C782.809875,236.781235 780.663269,234.646439 780.823425,233.884293 
	C781.869080,228.908234 782.808105,223.750229 784.955872,219.206558 
	C787.514404,213.793716 790.554688,208.259811 794.672913,204.031525 
	C798.753967,199.841339 804.360229,197.089157 809.434143,193.925308 
	C816.167114,189.726944 823.782593,191.327988 830.994934,191.509186 
	C835.009644,191.610016 839.329773,193.217590 842.883606,195.246964 
	C851.064697,199.918732 858.041687,206.193497 862.184021,214.833878 
	C864.049500,218.725052 864.716553,223.190796 865.964905,227.705200 
	C866.002319,228.014587 865.981506,228.017914 865.981506,228.017914 
z"/>
<path fill="#000000" opacity="1.000000" stroke="none" 
	d="
M726.570496,283.071838 
	C726.531006,283.089783 726.609985,283.053864 726.570496,283.071838 
z"/>
<path fill="#000001" opacity="1.000000" stroke="none" 
	d="
M866.009644,228.008362 
	C866.017029,228.002151 866.041931,228.005356 866.011719,228.011627 
	C865.981506,228.017914 866.002319,228.014587 866.009644,228.008362 
z"/>
<path fill="#000000" opacity="1.000000" stroke="none" 
	d="
M781.001465,284.002747 
	C781.002930,284.005493 780.961121,284.058838 780.978882,284.028259 
	C780.996704,283.997650 781.000000,284.000000 781.001465,284.002747 
z"/>
<path fill="#000000" opacity="1.000000" stroke="none" 
	d="
M733.002930,207.998703 
	C733.005798,207.996414 733.065674,208.019547 733.030762,208.014069 
	C732.995789,208.008575 733.000000,208.000992 733.002930,207.998703 
z"/>
<path fill="#000001" opacity="1.000000" stroke="none" 
	d="
M1077.958984,209.072327 
	C1080.413086,214.421585 1083.091797,219.289001 1085.137329,224.409363 
	C1086.425171,227.633118 1086.865356,231.219345 1087.428589,234.684784 
	C1087.520630,235.251480 1086.393555,236.387238 1085.626587,236.637802 
	C1084.402344,237.037842 1083.007446,237.002075 1081.684692,237.002182 
	C1056.897949,237.004318 1032.111084,236.999969 1007.324341,236.958420 
	C1001.109009,236.947998 1000.964050,236.198318 1001.066284,229.918854 
	C1001.203247,221.511826 1005.853088,215.232422 1010.460449,209.211517 
	C1014.455139,203.991211 1019.407959,199.121292 1024.883057,195.543823 
	C1028.894287,192.922852 1034.400635,192.479538 1039.313599,191.396698 
	C1041.690186,190.872879 1044.235962,190.992889 1046.702637,191.024902 
	C1054.679199,191.128372 1062.018921,193.146637 1067.969360,198.768951 
	C1071.373169,201.985001 1074.606079,205.381989 1077.958984,209.072327 
z"/>
<path fill="#000000" opacity="1.000000" stroke="none" 
	d="
M951.005371,305.014832 
	C951.015198,305.028168 951.060059,304.955383 951.014893,304.967957 
	C950.969788,304.980560 950.995544,305.001526 951.005371,305.014832 
z"/>
<path fill="#000000" opacity="1.000000" stroke="none" 
	d="
M950.001221,302.001404 
	C950.002380,302.002777 950.121643,301.965881 950.058350,301.981445 
	C949.995117,301.997009 950.000000,302.000000 950.001221,302.001404 
z"/>
<path fill="#000000" opacity="1.000000" stroke="none" 
	d="
M948.520020,292.530640 
	C948.512207,292.504028 948.527893,292.557281 948.520020,292.530640 
z"/>
<path fill="#000000" opacity="1.000000" stroke="none" 
	d="
M1212.002808,344.011047 
	C1212.008301,344.020325 1212.052124,343.951447 1212.015869,343.970093 
	C1211.979614,343.988770 1211.997314,344.001740 1212.002808,344.011047 
z"/>
<path fill="#000000" opacity="1.000000" stroke="none" 
	d="
M1167.004150,211.008377 
	C1167.011841,211.018524 1167.093506,210.960815 1167.034668,210.971237 
	C1166.975830,210.981659 1166.996460,210.998230 1167.004150,211.008377 
z"/>
<path fill="#000000" opacity="1.000000" stroke="none" 
	d="
M1178.004639,243.014984 
	C1178.013062,243.027405 1178.052856,242.954178 1178.012695,242.969055 
	C1177.972534,242.983932 1177.996216,243.002548 1178.004639,243.014984 
z"/>
<path fill="#000000" opacity="1.000000" stroke="none" 
	d="
M1170.004395,220.008331 
	C1170.011597,220.017853 1170.088135,219.959763 1170.032837,219.971558 
	C1169.977539,219.983337 1169.997192,219.998825 1170.004395,220.008331 
z"/>
<path fill="#000000" opacity="1.000000" stroke="none" 
	d="
M1171.004517,223.010086 
	C1171.013428,223.021530 1171.087524,222.959366 1171.030151,222.969604 
	C1170.972778,222.979858 1170.995605,222.998642 1171.004517,223.010086 
z"/>
<path fill="#10213C" opacity="1.000000" stroke="none" 
	d="
M348.002350,417.493835 
	C346.827087,417.859894 345.497833,418.004181 344.168610,418.004272 
	C277.176300,418.009308 210.183975,418.002441 143.191650,417.991425 
	C142.359497,417.991302 141.527328,417.921661 140.207108,417.824219 
	C153.303741,409.106628 166.865570,400.413116 180.478470,391.800354 
	C201.393417,378.567657 222.343445,365.390472 243.564194,352.002563 
	C251.987015,356.603027 260.239044,361.207123 268.240112,366.212372 
	C293.007141,381.706085 317.686920,397.339355 342.371155,412.964905 
	C344.313293,414.194305 346.027985,415.783081 348.002350,417.493835 
z"/>
<path fill="#8AB5DF" opacity="1.000000" stroke="none" 
	d="
M240.432953,43.902554 
	C240.388367,43.272427 240.586655,42.406521 241.016541,41.290703 
	C241.057373,41.916115 240.866592,42.791447 240.432953,43.902554 
z"/>
<path fill="#000000" opacity="1.000000" stroke="none" 
	d="
M310.734497,166.258240 
	C310.787689,166.227844 310.725494,166.407593 310.707794,166.499817 
	C310.690094,166.592041 310.681274,166.288635 310.734497,166.258240 
z"/>
</svg>